<svg width="8677" height="4439" viewBox="0 0 8677 4439" fill="none" xmlns="http://www.w3.org/2000/svg">
<g clip-path="url(#clip0_21_6893)">
<path d="M3841.84 1455.63L3804.42 1505.5L3779.49 1530.44L3729.61 1557.86L3722.12 1580.31C3722.12 1580.31 3702.17 1600.26 3704.67 1612.74C3707.18 1625.21 3707.18 1647.65 3707.18 1647.65C3707.18 1647.65 3672.26 1680.07 3657.29 1690.04C3642.32 1700.01 3622.37 1722.46 3622.37 1722.46C3622.37 1722.46 3609.9 1737.42 3602.42 1742.41C3594.94 1747.39 3582.48 1762.35 3572.49 1777.32C3562.51 1792.29 3552.54 1802.25 3547.55 1809.73C3542.56 1817.21 3527.59 1834.67 3520.11 1862.1C3512.64 1889.55 3492.68 1921.95 3492.68 1921.95L3487.68 1934.42C3490.19 1976.82 3490.18 1984.3 3495.17 1999.27C3500.16 2014.22 3505.16 2009.23 3500.16 2041.66C3495.17 2074.06 3495.17 2086.54 3490.19 2101.51C3485.2 2116.46 3470.23 2143.89 3465.26 2156.37C3460.26 2168.84 3475.23 2191.27 3475.23 2191.27C3475.23 2191.27 3482.72 2223.7 3477.72 2231.18C3472.73 2238.67 3480.21 2253.63 3480.21 2253.63C3480.21 2253.63 3510.14 2271.08 3520.13 2281.06C3530.1 2291.04 3547.56 2306 3550.05 2313.48C3552.56 2320.97 3572.5 2355.88 3575 2363.36C3577.49 2370.84 3597.45 2398.26 3602.43 2405.75C3607.42 2413.24 3632.36 2440.68 3632.36 2440.68C3632.36 2440.68 3664.78 2465.59 3672.27 2475.58C3679.75 2485.55 3702.2 2490.53 3709.67 2498.01C3717.16 2505.49 3734.61 2502.99 3744.58 2510.49C3754.57 2517.97 3774.51 2505.49 3784.5 2510.49C3794.47 2515.47 3821.91 2505.5 3829.39 2500.52C3836.87 2495.53 3854.33 2478.08 3866.8 2485.55C3879.27 2493.01 3886.75 2485.55 3896.73 2488.04C3906.69 2490.53 3921.66 2478.08 3931.63 2478.08C3941.62 2478.08 3966.55 2468.1 3974.03 2468.1C3981.52 2468.1 4006.46 2453.12 4016.44 2453.12C4026.41 2453.12 4038.88 2443.17 4051.35 2448.14C4063.81 2453.12 4058.83 2438.18 4081.28 2445.65C4103.73 2453.12 4111.21 2445.65 4118.68 2453.12C4126.17 2460.61 4136.16 2453.14 4143.64 2463.11C4151.12 2473.07 4163.58 2480.55 4166.08 2490.53C4168.56 2500.52 4183.53 2510.5 4183.53 2510.5L4198.5 2512.98C4198.5 2512.98 4218.46 2498.02 4223.44 2508.01C4228.43 2517.98 4250.88 2515.5 4250.88 2515.5L4273.31 2540.42L4280.8 2550.4C4280.8 2550.4 4295.77 2590.3 4293.27 2605.26C4290.78 2620.22 4290.78 2652.64 4283.3 2660.12C4275.82 2667.61 4270.83 2700.02 4270.83 2700.02C4270.83 2700.02 4260.85 2710 4283.3 2729.95C4305.75 2749.92 4320.72 2767.35 4328.2 2777.32C4335.69 2787.3 4355.64 2814.74 4358.11 2832.19C4360.62 2849.64 4365.6 2859.61 4375.59 2882.06C4385.56 2904.51 4398.02 2907 4400.52 2931.95C4403.02 2956.88 4408 2956.89 4405.5 2974.33C4403.01 2991.79 4395.53 2994.29 4403.01 3006.75C4410.49 3019.23 4420.45 3041.67 4417.98 3049.15C4415.49 3056.63 4410.49 3089.05 4410.49 3089.05L4405.5 3104.02L4383.07 3146.43L4368.1 3168.85C4363.11 3186.31 4353.14 3203.77 4355.63 3228.71C4358.11 3253.65 4343.17 3253.64 4363.11 3278.56C4383.07 3303.52 4393.03 3330.95 4405.5 3353.4C4417.98 3375.83 4425.46 3398.28 4427.94 3413.24C4430.45 3428.2 4440.42 3433.2 4445.41 3453.14C4450.38 3473.1 4452.88 3483.06 4452.88 3495.53C4452.88 3508 4450.38 3540.43 4455.39 3547.91C4460.36 3555.39 4462.87 3577.84 4465.36 3587.82C4467.85 3597.8 4457.87 3600.29 4472.84 3617.75C4487.81 3635.2 4497.78 3645.17 4507.75 3657.65C4517.73 3670.13 4515.23 3665.13 4522.72 3682.59C4530.2 3700.04 4540.18 3710.03 4542.68 3724.98C4545.17 3739.94 4547.66 3777.34 4555.15 3794.8C4562.63 3812.26 4572.6 3829.73 4572.6 3829.73C4572.6 3829.73 4600.04 3847.18 4610.02 3844.68C4619.98 3842.19 4639.95 3819.77 4654.92 3827.23C4669.89 3834.71 4682.35 3827.23 4694.82 3827.23C4707.28 3827.23 4719.76 3812.26 4732.24 3812.26C4744.7 3812.26 4762.15 3792.31 4772.15 3797.31C4782.12 3802.28 4794.57 3792.3 4807.05 3779.84C4819.53 3767.38 4827.01 3757.41 4849.44 3737.46C4871.89 3717.5 4869.4 3717.49 4884.36 3705.03C4899.33 3692.55 4914.3 3665.12 4931.75 3660.13C4949.2 3655.15 4954.19 3637.71 4959.18 3625.23C4964.17 3612.76 4966.65 3605.28 4974.15 3595.29C4981.64 3585.33 4976.64 3597.82 4989.11 3565.38C5001.59 3532.95 5016.57 3520.5 5029.04 3513.01C5041.5 3505.53 5048.98 3490.57 5056.46 3488.07C5063.94 3485.56 5076.42 3495.55 5071.43 3473.1C5066.46 3450.66 5071.43 3418.24 5066.46 3410.76C5061.46 3403.26 5053.97 3428.2 5056.47 3390.79C5058.99 3353.4 5086.4 3315.98 5086.4 3315.98C5086.4 3315.98 5123.81 3268.6 5136.29 3261.13C5148.76 3253.65 5151.24 3246.17 5168.72 3236.19C5186.16 3226.22 5223.58 3201.28 5223.58 3188.81C5223.58 3176.33 5238.55 3143.91 5238.55 3136.43C5238.55 3128.95 5238.55 3121.47 5233.57 3079.07C5228.58 3036.69 5238.55 3046.65 5223.59 3006.75C5208.63 2966.85 5206.12 2916.97 5196.15 2904.51C5186.17 2892.03 5191.16 2859.6 5191.16 2849.64C5191.16 2839.67 5208.63 2814.73 5216.11 2804.76C5223.59 2794.78 5256.01 2754.87 5256.01 2754.87C5256.01 2754.87 5305.88 2697.52 5323.35 2670.1C5340.81 2642.65 5358.26 2617.73 5370.73 2607.75C5383.2 2597.78 5413.13 2575.31 5430.58 2550.38C5448.05 2525.46 5482.96 2478.08 5485.47 2470.58C5487.95 2463.11 5507.89 2438.17 5507.89 2438.17C5507.89 2438.17 5535.33 2405.74 5540.33 2388.29C5545.3 2370.83 5570.23 2273.57 5565.25 2278.56C5560.28 2283.56 5530.34 2288.53 5520.36 2291.02C5510.4 2293.53 5535.34 2303.49 5463 2298.51C5390.68 2293.52 5353.28 2305.99 5353.28 2305.99C5330.82 2301 5313.36 2325.94 5305.87 2291.02C5298.39 2256.12 5293.4 2236.17 5278.45 2211.23C5263.48 2186.29 5253.5 2176.32 5231.07 2143.89C5208.63 2111.48 5211.1 2126.43 5191.15 2101.51C5171.2 2076.57 5166.2 2084.04 5153.74 2051.63C5141.27 2019.21 5131.3 2031.69 5116.33 1986.79C5101.36 1941.89 5091.39 1936.9 5083.91 1911.97C5076.42 1887.04 5066.46 1879.54 5061.46 1857.11C5056.47 1834.66 4999.12 1719.95 4991.63 1712.46C4984.14 1704.99 4971.67 1665.08 4974.17 1672.57C4976.67 1680.04 5011.59 1704.98 5011.59 1704.98C5011.59 1704.98 5031.53 1697.49 5039.02 1697.49C5046.5 1697.49 5076.43 1724.94 5076.43 1734.9C5076.43 1744.88 5128.83 1792.27 5141.28 1827.18C5153.75 1862.09 5168.74 1887.03 5171.21 1897C5173.68 1906.97 5198.65 1946.88 5208.63 1961.85C5218.59 1976.82 5251.01 2006.73 5256 2021.7C5260.99 2036.67 5308.39 2086.54 5308.39 2118.96C5308.39 2151.38 5330.82 2193.77 5333.32 2203.74C5335.82 2213.71 5380.7 2226.2 5380.7 2226.2L5440.57 2211.23C5440.57 2211.23 5530.34 2153.86 5540.33 2153.86C5550.29 2153.86 5630.12 2116.46 5630.12 2116.46C5630.12 2116.46 5662.53 2086.54 5684.97 2069.09C5707.42 2051.63 5732.36 2019.22 5737.36 2004.24C5742.34 1989.27 5752.32 1986.79 5772.26 1964.33C5792.22 1941.89 5819.66 1919.45 5802.2 1904.48C5784.74 1889.52 5774.76 1894.51 5749.83 1869.57C5724.88 1844.64 5727.38 1849.63 5709.91 1817.2C5692.45 1784.79 5712.41 1747.37 5674.99 1784.79C5637.59 1822.19 5652.55 1832.17 5615.13 1839.67C5577.73 1847.13 5562.75 1872.07 5545.3 1847.13C5527.85 1822.19 5510.4 1837.16 5500.4 1799.75C5490.43 1762.34 5482.94 1759.84 5480.46 1744.89C5477.98 1729.92 5480.46 1729.92 5460.5 1692.51C5440.56 1655.1 5455.52 1597.74 5467.98 1630.16C5480.46 1662.58 5500.4 1667.57 5532.84 1690.02C5565.25 1712.45 5580.23 1729.92 5610.14 1732.42C5640.07 1734.9 5665.02 1732.42 5670 1737.39C5674.99 1742.39 5679.97 1734.91 5692.45 1739.88C5704.93 1744.88 5709.89 1732.42 5714.89 1752.35C5719.88 1772.3 5747.31 1774.8 5759.78 1787.26C5772.25 1799.72 5772.25 1794.75 5804.69 1799.72C5837.12 1804.72 5882.02 1804.72 5882.02 1804.72L5929.39 1802.22L5984.26 1807.19C5984.26 1807.19 6024.18 1829.64 6034.14 1829.64C6044.11 1829.64 6046.61 1857.08 6071.55 1872.04C6096.49 1887.01 6101.48 1889.49 6116.44 1906.95C6131.43 1924.41 6128.91 1931.89 6148.86 1949.34C6168.82 1966.81 6201.26 1946.86 6206.24 1939.39C6211.21 1931.9 6236.15 1919.44 6231.19 1939.39C6226.19 1959.34 6256.11 1951.85 6248.63 1999.24C6241.15 2046.61 6236.15 2034.15 6248.63 2066.58C6261.09 2098.99 6315.96 2198.74 6318.47 2228.67C6320.97 2258.59 6335.92 2248.62 6338.41 2276.07C6340.92 2303.49 6355.86 2313.46 6355.86 2333.41C6355.86 2353.37 6373.34 2358.34 6375.82 2373.32C6378.34 2388.29 6405.76 2375.8 6413.24 2373.32C6420.73 2370.82 6455.63 2338.4 6455.63 2338.4C6455.63 2338.4 6470.62 2333.43 6468.11 2308.47C6465.61 2283.56 6468.11 2288.53 6468.11 2251.13C6468.11 2213.72 6453.15 2213.72 6460.63 2176.33C6468.11 2138.92 6488.05 2116.47 6493.05 2099.02C6498.04 2081.57 6517.99 2051.64 6527.96 2049.14C6537.93 2046.64 6592.81 2019.22 6605.29 2001.75C6617.75 1984.3 6637.71 1964.34 6657.66 1944.4C6677.61 1924.46 6712.52 1899.52 6720.01 1907C6727.49 1914.48 6725 1911.98 6737.48 1911.98C6749.94 1911.98 6772.39 1921.97 6789.84 1924.46C6807.31 1926.95 6842.23 1969.34 6849.71 1991.79C6857.19 2014.24 6852.2 2009.24 6879.64 2041.67C6907.08 2074.08 6932.02 2054.12 6932.02 2094.03C6932.02 2133.94 6932.02 2131.43 6944.49 2146.4C6956.96 2161.37 6971.92 2118.97 6986.88 2123.97C7001.84 2128.96 7004.33 2118.98 7016.79 2158.88C7029.26 2198.79 7036.74 2198.79 7039.25 2238.68C7041.74 2278.58 7036.75 2241.18 7036.75 2273.58C7036.75 2306.01 7034.25 2308.51 7039.25 2338.42C7044.23 2368.37 7061.67 2378.34 7059.2 2383.33C7059.2 2383.33 7074.16 2340.94 7069.16 2311C7064.2 2281.09 7069.16 2238.7 7081.64 2226.23C7094.1 2213.74 7106.59 2201.29 7116.55 2233.71C7126.54 2266.12 7131.52 2241.19 7153.96 2278.59C7176.42 2316.01 7196.37 2308.51 7198.86 2325.97C7201.35 2343.43 7213.85 2345.93 7231.28 2360.88C7248.74 2375.85 7263.7 2358.4 7283.66 2343.43C7303.62 2328.46 7358.47 2273.6 7360.99 2251.15C7363.47 2228.71 7385.92 2233.69 7346.01 2176.35C7306.1 2118.99 7306.1 2099.04 7263.7 2064.13C7221.33 2029.21 7196.38 2026.72 7228.81 1981.83C7261.23 1936.93 7276.2 1907.02 7296.15 1919.49C7316.1 1931.96 7350.99 1929.45 7350.99 1979.35C7350.99 2029.21 7341.02 2084.08 7375.94 2024.23C7410.85 1964.38 7428.33 1929.47 7418.33 1939.46C7408.37 1949.43 7440.78 1919.51 7440.78 1919.51C7440.78 1919.51 7443.28 1897.06 7485.69 1887.09C7528.07 1877.09 7540.54 1872.12 7555.52 1864.64C7570.48 1857.15 7612.88 1807.27 7620.36 1784.83C7627.84 1762.39 7647.8 1722.49 7642.81 1705.04C7637.82 1687.57 7612.87 1602.8 7607.88 1605.28C7602.91 1607.78 7605.4 1607.78 7572.99 1572.87C7540.55 1537.96 7518.11 1513.02 7513.12 1498.05C7508.14 1483.08 7495.66 1480.59 7510.62 1460.65C7525.6 1440.7 7533.08 1443.2 7535.57 1425.74C7538.06 1408.29 7558 1393.32 7520.59 1405.79C7483.2 1418.26 7510.62 1410.79 7478.2 1408.3C7445.78 1405.79 7360.99 1425.75 7403.39 1373.38C7445.78 1321.01 7458.23 1288.6 7465.72 1288.6C7473.22 1288.6 7510.63 1246.2 7513.11 1286.1C7515.62 1326 7530.57 1316.01 7533.07 1340.95C7535.57 1365.89 7585.45 1313.53 7585.45 1313.53C7585.45 1313.53 7602.9 1318.52 7615.36 1330.98C7627.84 1343.45 7627.84 1383.36 7627.84 1383.36C7627.84 1383.36 7617.87 1370.88 7645.3 1390.83C7672.75 1410.8 7702.66 1400.81 7702.66 1443.21C7702.66 1485.6 7702.66 1488.1 7720.12 1498.07C7737.59 1508.05 7755.02 1503.07 7770.02 1490.59C7784.97 1478.13 7809.9 1433.24 7809.9 1433.24C7809.9 1433.24 7812.4 1415.77 7772.5 1390.83C7732.6 1365.91 7707.65 1348.46 7692.71 1335.98C7677.73 1323.52 7682.72 1286.11 7697.67 1271.13C7712.66 1256.16 7720.12 1248.68 7715.13 1228.74C7710.14 1208.78 7722.62 1193.82 7760.03 1196.31C7797.44 1198.82 7804.92 1193.83 7804.92 1193.83C7804.92 1193.83 7812.42 1198.8 7812.42 1183.85C7812.42 1168.89 7859.79 1099.06 7847.31 1099.06C7834.85 1099.06 7849.84 1081.61 7842.33 1054.17C7834.85 1026.73 7867.27 984.349 7839.84 964.395C7812.41 944.441 7804.92 934.458 7787.47 904.543C7770.02 874.607 7772.49 869.632 7707.65 862.142C7642.81 854.663 7612.88 877.111 7597.91 857.167C7582.94 837.213 7575.47 887.082 7565.5 827.231C7555.53 767.379 7580.47 727.47 7580.47 727.47C7580.47 727.47 7620.37 702.542 7630.33 685.08C7640.31 667.619 7680.21 660.14 7712.66 672.616C7745.08 685.08 7792.45 682.587 7832.38 690.088C7872.28 697.556 7869.78 722.496 7889.74 690.088C7909.69 657.647 7889.74 642.701 7904.7 625.24C7919.68 607.778 7937.12 580.345 7949.59 597.796C7962.05 615.268 7987.03 632.707 8006.98 610.26C8026.93 587.824 8034.41 585.331 8034.41 585.331L8044.36 595.314C8044.36 595.314 8066.81 582.827 8066.81 605.263C8066.81 627.722 8089.27 652.662 8076.79 670.112C8064.3 687.584 8046.87 685.08 8046.87 727.47C8046.87 769.883 8046.87 762.393 8074.29 797.316C8101.73 832.216 8119.18 802.291 8124.17 839.706C8129.17 877.111 8134.13 869.643 8161.59 894.572C8189.02 919.501 8184.02 919.501 8203.98 934.469C8223.94 949.438 8233.92 964.406 8233.92 939.466C8233.92 914.526 8236.42 902.062 8233.92 879.614C8231.41 857.178 8253.88 839.706 8238.89 802.302C8223.93 764.897 8236.41 767.39 8206.48 739.957C8176.54 712.535 8156.58 744.954 8146.63 705.046C8136.65 665.148 8194 647.687 8208.98 642.701C8223.94 637.726 8246.37 607.789 8251.35 627.744C8256.35 647.687 8213.96 720.014 8286.29 642.701C8358.6 565.399 8326.19 597.818 8326.19 597.818C8326.19 597.818 8363.6 592.832 8371.08 597.818C8378.55 602.815 8398.54 575.371 8391.02 577.875C8383.54 580.379 8311.24 537.966 8311.24 537.966L8258.84 508.052C8258.84 508.052 8276.32 495.576 8288.78 498.08C8301.26 500.573 8303.76 473.14 8316.24 470.636C8328.71 468.143 8413.49 488.108 8430.97 498.08C8448.42 508.052 8510.76 510.544 8503.27 505.559C8495.79 500.562 8455.9 470.647 8453.4 460.664C8450.91 450.693 8363.61 430.739 8336.19 433.232C8308.74 435.713 8283.82 443.192 8261.37 435.713C8238.91 428.235 8206.5 408.28 8189.04 408.28C8171.58 408.28 7952.11 365.89 7942.14 368.383C7932.17 370.876 7917.19 418.252 7909.71 410.773C7902.23 403.295 7889.76 403.284 7854.83 393.312C7819.93 383.34 7772.53 375.851 7710.17 370.876C7647.83 365.89 7605.45 375.862 7587.98 355.908C7570.52 335.964 7533.12 343.443 7490.72 340.939C7448.33 338.457 7398.44 340.939 7375.99 340.939C7353.54 340.939 7301.19 338.457 7288.71 335.953C7276.23 333.449 7261.28 315.999 7246.32 313.517C7231.34 311.013 7233.83 306.039 7203.91 301.053C7173.98 296.056 7176.48 263.648 7166.5 291.07C7156.53 318.514 7161.51 311.024 7146.55 320.996C7131.58 330.979 7116.62 350.922 7106.64 350.922C7096.67 350.922 7056.77 353.415 7049.27 348.429C7041.78 343.443 7029.32 338.457 7004.37 338.457C6979.43 338.457 6979.43 340.939 6947.01 335.953C6914.59 330.968 6889.65 333.449 6859.72 318.503C6829.79 303.535 6829.79 293.563 6804.85 296.056C6779.93 298.56 6779.93 291.07 6744.99 291.07C6710.09 291.07 6667.69 311.024 6645.23 313.517C6622.8 316.01 6572.92 311.013 6555.46 303.535C6537.98 296.056 6533.01 278.606 6468.15 286.073C6403.31 293.563 6365.9 293.563 6378.37 273.609C6390.85 253.666 6405.8 233.711 6413.28 231.219C6420.77 228.726 6438.21 216.261 6425.74 211.275C6413.28 206.279 6400.81 198.811 6370.89 196.307C6340.95 193.814 6343.43 206.279 6298.56 201.293C6253.67 196.307 6323.5 183.843 6231.23 186.335C6138.95 188.839 6116.5 196.307 6106.53 196.307C6096.55 196.307 6084.07 176.364 6059.14 206.279C6034.2 236.204 5999.26 253.655 5949.4 256.148C5899.52 258.651 5897.02 251.162 5849.65 268.612C5802.26 286.062 5772.32 263.626 5782.3 303.524C5792.26 343.421 5804.75 358.389 5804.75 365.868C5804.75 373.347 5782.3 423.227 5754.88 393.301C5727.42 363.375 5677.55 246.165 5700 325.971C5722.43 405.765 5772.31 433.209 5724.94 445.674C5677.56 458.138 5682.52 440.688 5675.04 435.691C5667.58 430.705 5675.04 395.794 5672.55 375.84C5670.05 355.896 5665.07 343.421 5655.1 333.449C5645.14 323.467 5647.61 308.509 5627.66 303.524C5607.71 298.538 5625.17 288.555 5592.75 288.555C5560.33 288.555 5532.9 268.601 5540.38 313.495C5547.85 358.378 5555.33 328.464 5575.27 370.854C5595.22 413.244 5632.64 383.318 5605.21 413.244C5577.78 443.17 5505.46 433.198 5487.99 420.734C5470.53 408.258 5475.53 425.72 5443.08 403.273C5410.66 380.825 5420.66 363.364 5383.25 380.825C5345.84 398.287 5333.36 430.705 5318.39 418.23C5303.42 405.754 5268.52 435.68 5256.04 420.734C5243.57 405.765 5193.68 405.765 5183.72 420.734C5173.74 435.691 5143.81 433.198 5101.42 453.153C5059.02 473.096 5071.48 455.634 5019.11 498.036C4966.72 540.426 4936.79 575.338 4919.35 547.905C4901.89 520.483 4807.11 473.096 4844.53 465.606C4881.94 458.127 4899.4 443.17 4919.35 460.62C4939.31 478.07 4971.74 473.096 4976.7 460.62C4981.69 448.145 5004.15 435.68 4974.21 420.723C4944.28 405.754 4941.79 415.726 4894.41 398.276C4847.02 380.814 4894.41 385.811 4829.56 375.829C4764.71 365.857 4737.27 360.871 4719.81 355.885C4702.37 350.9 4677.42 355.885 4652.49 353.393C4627.54 350.9 4610.09 345.914 4587.63 348.407C4565.2 350.9 4552.73 345.914 4522.79 368.361C4492.85 390.808 4470.4 400.78 4450.46 418.23C4430.51 435.68 4378.15 470.603 4363.18 483.078C4348.21 495.543 4295.83 535.44 4290.84 550.409C4285.86 565.377 4295.83 577.842 4275.87 587.813C4255.92 597.785 4235.97 597.785 4221 600.278C4206.03 602.77 4221 577.83 4206.03 602.77C4191.07 627.71 4196.06 717.488 4208.53 705.012C4220.99 692.537 4213.51 652.65 4268.38 690.066C4323.25 727.459 4358.18 722.474 4355.67 757.385C4353.18 792.297 4393.08 789.804 4398.07 797.294C4403.06 804.761 4428 787.311 4428 787.311C4428 787.311 4482.87 752.399 4482.87 734.949C4482.87 717.488 4517.78 677.59 4517.78 677.59C4517.78 677.59 4492.83 665.126 4492.83 640.186C4492.83 615.257 4500.33 607.756 4505.31 582.816C4510.29 557.887 4477.87 582.827 4552.7 535.429C4627.5 488.053 4632.5 520.483 4632.5 520.483C4632.5 520.483 4642.46 530.454 4630 545.412C4617.53 560.38 4595.08 600.289 4590.09 605.263C4585.1 610.26 4612.54 650.158 4625 650.158C4637.47 650.158 4662.42 640.175 4677.39 642.668C4692.36 645.172 4717.29 635.2 4724.77 640.186C4732.26 645.172 4749.71 660.129 4737.23 672.605C4724.77 685.069 4697.32 700.027 4677.39 695.052C4657.42 690.077 4627.49 655.143 4644.95 705.023C4662.42 754.903 4642.46 767.368 4627.49 764.875C4612.54 762.382 4580.11 737.453 4585.1 774.858C4590.09 812.251 4552.69 837.191 4545.2 837.191C4537.71 837.191 4522.76 834.698 4522.76 834.698C4522.76 834.698 4500.3 832.194 4487.84 832.194C4475.37 832.194 4450.42 844.659 4442.94 854.641C4435.45 864.613 4425.48 857.145 4413.02 857.145C4400.55 857.145 4413.02 842.177 4388.07 837.191C4363.14 832.205 4348.17 827.219 4333.21 837.191C4318.24 847.163 4295.81 852.148 4285.82 844.67C4275.85 837.191 4290.82 819.719 4270.85 829.712C4250.91 839.684 4235.94 867.117 4228.46 869.621C4220.98 872.103 4250.91 869.621 4220.98 872.103C4191.05 874.607 4178.59 882.096 4163.62 887.071C4148.65 892.068 4168.6 921.983 4141.17 931.954C4113.73 941.926 4133.7 919.49 4106.25 941.926C4078.82 964.384 4073.82 984.327 4063.86 986.82C4053.87 989.324 4056.38 994.299 4033.93 996.792C4011.48 999.285 4013.98 1001.78 4001.5 1004.27C3989.03 1006.76 4004 1011.76 3976.57 1006.76C3949.12 1001.78 3929.17 1011.76 3934.16 1021.73C3939.15 1031.7 4031.43 1059.14 3961.6 1056.64C3891.77 1054.15 3914.22 1066.61 3929.17 1076.59C3944.14 1086.56 3951.61 1096.53 3959.1 1099.03C3966.59 1101.53 3979.05 1131.46 3979.05 1131.46C3979.05 1131.46 3999 1128.96 3986.54 1146.42C3974.07 1163.88 3991.52 1168.87 3979.05 1191.31C3966.58 1213.76 3966.58 1198.79 3956.61 1203.78C3946.64 1208.75 3931.67 1226.23 3904.22 1211.26C3876.79 1196.29 3856.85 1188.81 3824.42 1186.33C3792 1183.83 3814.44 1178.85 3792 1196.29C3769.55 1213.76 3764.56 1233.71 3767.07 1256.14C3769.56 1278.58 3772.05 1308.51 3764.56 1323.48C3757.08 1338.44 3757.08 1353.41 3762.06 1375.86C3767.06 1398.29 3782.03 1408.29 3782.03 1408.29C3782.03 1408.29 3816.94 1413.26 3824.42 1415.76C3831.9 1418.26 3846.87 1410.78 3866.81 1423.23C3886.77 1435.71 3906.73 1440.7 3919.19 1425.74C3931.66 1410.78 3981.54 1393.32 3996.52 1378.36C4011.48 1363.39 4021.45 1358.42 4013.97 1343.45C4006.49 1328.48 4028.94 1291.07 4041.41 1283.6C4053.87 1276.12 4081.31 1268.63 4081.31 1268.63L4111.24 1223.74C4111.24 1223.74 4136.18 1196.3 4148.65 1198.8C4161.11 1201.3 4230.94 1226.25 4225.97 1193.83C4220.98 1161.4 4230.95 1151.43 4238.43 1163.89C4245.91 1176.36 4265.87 1171.37 4265.87 1171.37C4265.87 1171.37 4275.84 1166.4 4283.32 1173.88C4290.8 1181.34 4300.77 1213.78 4315.74 1221.25C4330.71 1228.74 4343.18 1236.22 4353.16 1241.19C4363.13 1246.19 4373.12 1241.19 4393.07 1258.66C4413.02 1276.12 4432.97 1286.1 4435.45 1293.57C4437.97 1301.05 4455.42 1318.51 4455.42 1318.51C4455.42 1318.51 4472.87 1323.49 4467.89 1333.48C4462.9 1343.45 4437.97 1373.38 4425.49 1378.36C4413.02 1383.35 4380.61 1373.36 4393.07 1383.35C4405.53 1393.32 4423 1405.79 4430.48 1398.3C4437.97 1390.82 4485.34 1340.94 4485.34 1340.94C4485.34 1340.94 4482.85 1343.44 4485.34 1328.47C4487.84 1313.52 4485.34 1296.06 4497.82 1303.54C4510.28 1311.03 4517.77 1321 4522.76 1311.03C4527.74 1301.05 4532.73 1306.04 4520.25 1298.56C4507.78 1291.07 4477.86 1248.68 4462.89 1246.19C4447.92 1243.69 4410.5 1218.75 4410.5 1218.75C4410.5 1218.75 4403.03 1211.27 4385.57 1191.33C4368.11 1171.37 4363.13 1176.36 4358.12 1158.9C4353.15 1141.45 4338.17 1119 4365.61 1123.98C4393.06 1128.97 4410.5 1146.42 4435.44 1161.39C4460.39 1176.36 4455.41 1181.33 4477.85 1196.3C4500.29 1211.27 4502.8 1226.24 4520.24 1223.74C4537.69 1221.25 4557.66 1233.72 4557.66 1256.16C4557.66 1278.61 4562.64 1303.54 4567.62 1308.54C4572.62 1313.53 4587.57 1323.5 4592.57 1333.48C4597.55 1343.45 4607.54 1368.39 4615 1378.36C4622.49 1388.33 4629.97 1395.82 4637.45 1408.3C4644.93 1420.76 4647.42 1405.79 4654.9 1410.79C4662.39 1415.77 4672.37 1413.27 4672.37 1403.3C4672.37 1393.33 4674.85 1375.87 4674.85 1375.87C4674.85 1375.87 4709.79 1365.89 4699.81 1360.9C4689.83 1355.91 4659.89 1325.99 4662.39 1316.01C4664.89 1306.04 4662.39 1286.1 4674.85 1288.59C4687.33 1291.07 4699.8 1313.52 4727.24 1293.57C4754.67 1273.61 4787.1 1263.64 4777.11 1293.57C4767.15 1323.49 4779.63 1328.47 4777.11 1360.9C4774.63 1393.33 4787.11 1383.35 4804.57 1400.81C4822.02 1418.27 4834.49 1420.77 4846.95 1425.75C4859.43 1430.74 4879.37 1428.25 4899.34 1430.74C4919.3 1433.24 4931.76 1423.25 4949.23 1428.25C4966.67 1433.24 5006.58 1425.75 5014.07 1430.74C5021.56 1435.73 5051.49 1420.77 5053.97 1438.22C5056.46 1455.68 5066.45 1435.73 5058.97 1475.63C5051.49 1515.52 5041.5 1542.96 5041.5 1542.96C5014.07 1595.33 5004.1 1607.81 4991.62 1610.3C4979.16 1612.79 4971.67 1620.27 4949.24 1617.78C4926.79 1615.27 4899.35 1617.78 4866.93 1610.3C4834.51 1602.81 4774.64 1617.78 4749.71 1602.81C4724.77 1587.85 4689.85 1600.32 4674.87 1582.87C4659.91 1565.4 4634.98 1567.9 4625 1557.93C4615.03 1547.95 4610.04 1520.53 4610.04 1560.43C4610.04 1600.34 4587.59 1602.82 4582.6 1622.77C4577.61 1642.72 4590.07 1632.75 4562.64 1630.25C4535.2 1627.75 4527.72 1642.72 4487.82 1612.8C4447.91 1582.88 4427.96 1582.88 4408.02 1570.4C4388.05 1557.93 4368.11 1592.84 4348.16 1552.95C4328.21 1513.04 4300.77 1545.46 4298.28 1513.04C4295.78 1480.61 4298.28 1483.13 4300.77 1463.17C4303.29 1443.22 4330.7 1425.77 4318.23 1418.29C4305.76 1410.81 4315.73 1398.34 4298.28 1405.83C4280.81 1413.3 4255.88 1415.8 4235.93 1423.28C4215.97 1430.77 4280.81 1423.28 4183.55 1430.77C4086.29 1438.24 4058.84 1448.22 4058.84 1448.22C4058.84 1448.22 4051.36 1443.23 4038.88 1453.2C4026.42 1463.17 4008.95 1478.14 3991.5 1470.66C3974.05 1463.17 3964.07 1465.67 3949.11 1468.17C3934.14 1470.66 3924.18 1455.71 3906.71 1468.17C3889.25 1480.62 3869.31 1485.62 3861.82 1480.62C3854.06 1475.53 3841.54 1455.58 3841.54 1455.58L3841.84 1455.63Z" fill="#B2B2B2"/>
<path d="M5510.34 3096.51C5502.86 3123.95 5475.43 3163.84 5475.43 3163.84L5425.53 3188.78C5425.53 3188.78 5408.1 3203.74 5398.11 3206.24C5388.14 3208.72 5363.19 3221.21 5363.19 3221.21C5363.19 3221.21 5340.76 3216.21 5348.22 3238.64C5355.7 3261.09 5358.21 3288.54 5355.7 3296C5353.22 3303.49 5353.22 3318.46 5353.22 3338.42C5353.22 3358.36 5345.74 3383.29 5333.27 3388.27C5320.8 3393.27 5308.32 3398.26 5310.82 3415.72C5313.32 3433.18 5313.32 3485.54 5313.32 3485.54L5345.75 3535.42C5345.75 3535.42 5355.73 3527.94 5375.68 3527.94C5395.62 3527.94 5415.58 3510.5 5415.58 3510.5C5415.58 3510.5 5438.04 3515.47 5435.53 3488.06C5433.03 3460.61 5445.52 3428.2 5443.01 3420.71C5440.53 3413.24 5465.47 3380.81 5465.47 3373.34C5465.47 3365.85 5490.41 3330.96 5490.41 3318.47C5490.41 3306.01 5507.86 3286.05 5510.35 3271.11C5512.85 3256.13 5515.34 3221.23 5520.33 3211.26C5525.32 3201.28 5527.82 3191.3 5527.82 3181.33C5527.82 3171.36 5527.82 3151.4 5527.82 3151.4L5510.09 3096.45L5510.34 3096.51Z" fill="#B2B2B2"/>
<path d="M7463.17 3433.21C7455.69 3443.17 7450.71 3550.42 7445.72 3562.89C7440.73 3575.35 7430.75 3640.2 7435.76 3655.15C7440.73 3670.13 7448.21 3724.98 7443.24 3742.44C7438.24 3759.89 7445.73 3814.76 7433.24 3812.26C7420.79 3809.76 7415.81 3814.77 7415.81 3822.24C7415.81 3829.73 7433.24 3844.67 7433.24 3844.67C7433.24 3844.67 7463.19 3844.68 7475.66 3842.18C7488.13 3839.69 7513.07 3827.21 7533.02 3827.21C7552.98 3827.21 7565.46 3812.24 7582.9 3812.24C7600.36 3812.24 7637.78 3799.79 7647.75 3804.76C7657.72 3809.74 7672.68 3774.84 7690.15 3782.33C7707.61 3789.81 7745.03 3764.87 7762.48 3764.87C7779.92 3764.87 7787.42 3737.42 7807.38 3742.43C7827.32 3747.42 7864.74 3732.46 7882.2 3739.92C7899.63 3747.42 7927.09 3714.99 7939.56 3739.92C7952.03 3764.87 7989.45 3774.84 7989.45 3787.3C7989.45 3799.77 7986.93 3827.21 7986.93 3827.21L8016.87 3824.71C8016.87 3824.71 8064.24 3794.78 8071.74 3794.78C8079.22 3794.78 8096.68 3769.85 8096.68 3782.33C8096.68 3794.78 8081.7 3822.24 8076.72 3834.69C8071.74 3847.17 8081.7 3862.13 8081.7 3862.13C8081.7 3862.13 8106.66 3874.6 8096.68 3897.03C8086.7 3919.48 8099.16 3914.51 8096.68 3931.95C8094.18 3949.41 8096.68 3941.92 8106.63 3951.89C8116.62 3961.87 8134.1 3979.36 8149.05 3976.84C8164.03 3974.34 8168.99 3959.39 8181.47 3966.87C8193.93 3974.35 8218.86 3969.36 8226.34 3979.34C8233.86 3989.3 8178.97 4014.24 8273.75 3971.87C8368.52 3929.45 8378.47 3919.48 8390.94 3904.51C8403.45 3889.56 8418.41 3874.6 8428.36 3864.62C8438.35 3854.64 8430.88 3857.14 8460.79 3834.69C8490.71 3812.25 8490.71 3822.23 8518.17 3779.82C8545.61 3737.44 8565.54 3722.48 8570.55 3714.99C8575.54 3707.5 8585.51 3705.02 8588 3675.07C8590.49 3645.15 8610.44 3617.72 8610.44 3607.75C8610.44 3597.79 8617.92 3582.83 8615.42 3565.36C8612.93 3547.9 8625.41 3522.98 8610.44 3498.04C8595.47 3473.09 8617.92 3463.14 8595.47 3453.13C8573.02 3443.16 8558.06 3448.16 8553.07 3430.7C8548.08 3413.24 8528.12 3415.73 8520.64 3368.35C8513.16 3320.98 8483.23 3315.97 8483.23 3315.97C8483.23 3315.97 8453.31 3303.5 8460.79 3298.53C8468.29 3293.53 8470.77 3258.61 8468.29 3248.64C8465.78 3238.67 8465.78 3216.22 8458.31 3201.27C8450.83 3186.29 8445.84 3166.36 8438.36 3148.89C8430.88 3131.44 8418.41 3126.44 8413.42 3106.5C8408.42 3086.56 8400.94 3079.06 8398.46 3074.08C8395.94 3069.09 8390.94 3044.17 8385.98 3071.58C8380.99 3099.01 8371 3151.37 8371 3151.37C8371 3151.37 8351.04 3193.78 8343.56 3206.25C8336.09 3218.7 8328.61 3251.13 8316.14 3248.63C8303.66 3246.13 8296.16 3261.11 8286.21 3258.6C8276.23 3256.09 8261.27 3261.1 8253.79 3253.62C8246.31 3246.13 8226.35 3226.19 8216.37 3223.69C8206.4 3221.21 8198.92 3201.26 8191.43 3201.26C8183.93 3201.26 8171.47 3183.79 8173.98 3173.82C8176.46 3163.85 8178.95 3141.41 8181.46 3131.43C8183.94 3121.46 8198.92 3099 8198.92 3099C8198.92 3099 8198.92 3084.04 8186.44 3084.04C8173.98 3084.04 8171.47 3084.04 8144.04 3081.54C8116.61 3079.03 8109.14 3076.55 8099.14 3076.55C8089.19 3076.55 8109.13 3071.57 8081.69 3079.04C8054.26 3086.54 8041.79 3106.49 8024.32 3123.95C8006.89 3141.4 8021.84 3136.4 8006.89 3141.4C7991.9 3146.4 7994.42 3128.92 7984.43 3156.37C7974.45 3183.8 7989.43 3191.27 7981.92 3196.27C7974.44 3201.26 7922.08 3178.82 7922.08 3178.82C7922.08 3178.82 7934.55 3176.31 7924.57 3163.85C7914.6 3151.37 7904.62 3133.93 7889.67 3141.41C7874.68 3148.89 7862.2 3153.89 7852.25 3166.35C7842.27 3178.82 7842.27 3188.79 7834.79 3198.76C7827.31 3208.73 7807.37 3208.73 7804.86 3218.71C7802.37 3228.7 7802.37 3253.62 7794.9 3256.12C7787.42 3258.62 7784.93 3246.17 7777.45 3243.66C7769.97 3241.17 7772.45 3221.22 7767.48 3233.69C7762.49 3246.16 7757.5 3243.65 7750.02 3263.61C7742.52 3283.56 7740.04 3301.02 7732.56 3303.52C7725.08 3306.02 7732.56 3308.5 7710.1 3320.98C7687.68 3333.44 7682.68 3333.44 7650.27 3348.41C7617.86 3363.38 7625.34 3363.38 7602.89 3365.86C7580.45 3368.36 7575.44 3375.84 7560.48 3378.34C7545.5 3380.83 7535.55 3383.31 7520.57 3398.28C7505.61 3413.25 7493.15 3418.22 7483.17 3420.73C7473.2 3423.23 7463.67 3433.02 7463.67 3433.02L7463.17 3433.21Z" fill="#B2B2B2"/>
<path d="M7610.32 2448.13C7600.36 2463.11 7567.94 2507.98 7555.47 2510.49C7543 2512.97 7530.52 2525.46 7520.55 2522.95C7510.57 2520.45 7488.13 2522.95 7480.65 2555.37C7473.17 2587.79 7460.69 2605.25 7453.19 2602.75C7445.71 2600.25 7465.65 2650.12 7423.27 2630.19C7380.89 2610.24 7395.85 2647.65 7390.85 2657.63C7385.86 2667.6 7398.33 2695.04 7400.82 2705.01C7403.34 2714.98 7410.79 2732.44 7420.78 2747.39C7430.75 2762.36 7438.23 2779.81 7455.69 2774.84C7473.16 2769.84 7528 2774.84 7528 2774.84C7528 2774.84 7547.98 2782.32 7560.44 2782.32C7572.9 2782.32 7575.41 2777.34 7582.88 2777.34C7590.34 2777.34 7605.31 2752.39 7602.83 2749.9C7600.34 2747.39 7592.87 2739.92 7607.82 2724.95C7622.79 2709.99 7640.24 2705.01 7642.74 2687.55C7645.24 2670.1 7637.76 2670.1 7645.24 2660.11C7652.72 2650.13 7670.17 2652.65 7665.19 2642.65C7660.19 2632.68 7670.17 2635.18 7660.19 2615.21C7650.23 2595.27 7637.75 2587.78 7647.72 2562.84C7657.7 2537.91 7667.7 2532.91 7665.19 2517.95C7662.69 2502.98 7677.66 2498 7660.19 2480.54C7642.75 2463.1 7635.26 2458.1 7622.79 2453.1L7610.49 2448L7610.32 2448.13Z" fill="#B2B2B2"/>
<path d="M8099.19 2697.53C8109.19 2695.04 8144.09 2670.1 8146.6 2714.99C8149.09 2759.88 8151.56 2747.4 8166.55 2772.34C8181.51 2797.28 8191.46 2804.78 8208.93 2792.31C8226.38 2779.82 8246.33 2779.82 8251.32 2757.39C8256.32 2734.95 8256.32 2734.95 8271.27 2734.95C8286.27 2734.95 8291.23 2732.45 8298.74 2742.45C8306.21 2752.4 8311.18 2742.43 8343.62 2759.89C8376.04 2777.35 8403.47 2772.34 8423.44 2789.81C8443.4 2807.26 8453.37 2804.79 8480.8 2814.75C8508.23 2824.72 8495.76 2809.77 8520.7 2837.2C8545.65 2864.62 8535.69 2872.1 8548.13 2884.58C8560.6 2897.04 8570.59 2874.59 8565.6 2904.52C8560.6 2934.45 8525.7 2904.52 8578.07 2946.9C8630.44 2989.31 8637.93 2996.8 8655.37 3009.25C8672.84 3021.73 8685.31 3036.7 8670.36 3036.7C8655.37 3036.7 8608 3036.7 8603.03 3029.21C8598.03 3021.73 8575.59 3016.73 8560.61 2999.28C8545.66 2981.84 8513.24 2969.36 8505.77 2954.4C8498.27 2939.42 8488.3 2934.45 8475.83 2934.45C8463.37 2934.45 8450.9 2949.4 8433.43 2966.86C8415.96 2984.31 8423.48 2956.9 8401.01 2964.37C8378.55 2971.86 8353.64 2961.87 8341.15 2951.9C8328.67 2941.92 8331.19 2926.97 8311.24 2934.45C8291.26 2941.92 8278.82 2936.94 8286.3 2921.98C8293.78 2907 8288.78 2887.06 8288.78 2887.06C8288.78 2887.06 8296.28 2862.12 8278.83 2857.14C8261.37 2852.17 8261.37 2834.71 8243.91 2829.7C8226.43 2824.72 8199.02 2812.25 8199.02 2812.25C8199.02 2812.25 8196.53 2812.25 8189.04 2809.76C8181.56 2807.25 8181.56 2807.25 8161.6 2802.28C8141.66 2797.28 8126.67 2802.26 8116.71 2789.8C8106.72 2777.34 8111.72 2759.88 8111.72 2759.88C8111.72 2759.88 8151.62 2764.86 8111.72 2734.94L8071.81 2705.02C8071.81 2705.02 8076.78 2702.52 8074.3 2697.53C8071.75 2692.44 8099.23 2697.42 8099.23 2697.42L8099.19 2697.53Z" fill="#B2B2B2"/>
<path d="M6976.85 2490.46C6976.85 2490.46 6989.31 2502.94 7009.27 2500.44C7029.22 2497.93 7044.16 2540.34 7056.66 2555.29C7069.12 2570.26 7076.62 2577.74 7104.04 2595.2C7131.47 2612.65 7128.97 2580.23 7166.39 2632.61C7203.8 2684.97 7186.34 2652.56 7203.8 2684.97C7221.25 2717.42 7231.24 2734.86 7241.21 2742.36C7251.17 2749.84 7258.67 2769.77 7261.17 2777.26C7263.66 2784.74 7281.11 2807.17 7281.11 2814.66C7281.11 2822.14 7286.11 2842.1 7271.15 2859.55C7256.18 2877.01 7243.7 2879.5 7243.7 2879.5C7243.7 2879.5 7213.77 2864.53 7203.8 2849.58C7193.82 2834.62 7181.36 2822.14 7163.89 2792.23C7146.44 2762.29 7126.48 2729.87 7116.51 2714.92C7106.54 2699.94 7091.57 2684.97 7084.09 2670.02C7076.61 2655.04 7056.65 2610.17 7046.68 2605.17C7036.71 2600.18 7034.2 2585.23 7016.74 2567.77C6999.3 2550.31 7001.78 2535.35 6994.3 2525.38C6986.82 2515.41 6969.37 2492.94 6969.37 2492.94L6976.68 2490.5L6976.85 2490.46Z" fill="#B2B2B2"/>
<path d="M2126.02 4435.69C2108.56 4425.72 2071.15 4408.25 2058.68 4398.28C2046.22 4388.31 2008.81 4333.42 2008.81 4333.42L1981.36 4281.05C1981.36 4281.05 1948.95 4241.15 1956.43 4226.2C1963.91 4211.23 1978.88 4201.26 1978.88 4193.78C1978.88 4186.3 1993.84 4166.33 1981.36 4158.87C1968.9 4151.38 1968.9 4148.89 1961.41 4126.45C1953.93 4104.01 1953.93 4084.03 1943.95 4079.06C1933.97 4074.08 1926.49 4041.66 1916.52 4039.16C1906.55 4036.66 1896.56 4019.21 1896.56 4019.21L1881.59 3817.21C1881.59 3817.21 1876.6 3724.95 1871.62 3704.98C1866.62 3685.04 1879.1 3642.65 1866.62 3605.23C1854.16 3567.83 1869.13 3522.95 1861.64 3507.98C1854.16 3493.01 1866.62 3450.63 1859.14 3410.73C1851.67 3370.83 1889.07 3320.95 1859.14 3306C1829.22 3291.02 1851.67 3268.58 1826.72 3268.58C1801.79 3268.58 1784.33 3256.11 1761.88 3238.67C1739.43 3221.21 1697.03 3188.78 1684.56 3176.3C1672.09 3163.85 1632.18 3131.42 1619.72 3121.45C1607.25 3111.47 1594.77 3069.07 1584.8 3056.6C1574.83 3044.14 1569.84 3006.74 1554.87 2984.29C1539.9 2961.86 1519.96 2924.45 1514.96 2916.96C1509.98 2909.48 1455.1 2844.65 1455.1 2844.65L1460.09 2804.75C1460.09 2804.75 1497.5 2782.3 1492.51 2774.82C1487.53 2767.33 1495.02 2759.84 1477.54 2744.9C1460.08 2729.92 1462.57 2702.48 1477.54 2690.03C1492.51 2677.54 1514.95 2637.65 1514.95 2637.65L1552.36 2575.31C1552.36 2575.31 1582.3 2542.87 1582.3 2520.44C1582.3 2498 1624.69 2483.04 1599.75 2463.09C1574.81 2443.12 1587.28 2425.67 1579.79 2410.7C1572.3 2395.75 1577.3 2385.78 1599.75 2370.81C1622.2 2355.84 1662.1 2300.98 1662.1 2300.98C1662.1 2300.98 1692.03 2293.49 1699.51 2293.49C1706.99 2293.49 1719.46 2213.68 1741.91 2266.05C1764.36 2318.42 1771.84 2290.99 1764.36 2328.4C1756.87 2365.8 1774.33 2358.33 1784.31 2348.36C1794.28 2338.37 1779.31 2355.84 1799.27 2310.93C1819.21 2266.05 1811.74 2251.09 1824.21 2263.57C1836.67 2276.04 1841.66 2278.54 1864.11 2286.02C1886.55 2293.49 1894.04 2290.99 1901.51 2305.96C1908.98 2320.93 1906.5 2300.97 1948.9 2308.46C1991.29 2315.95 2051.15 2293.49 2043.67 2318.42C2036.19 2343.36 2021.22 2315.93 2056.13 2343.36C2091.05 2370.81 2096.05 2375.78 2115.99 2380.78C2135.94 2385.76 2153.4 2383.27 2183.34 2413.2C2213.27 2443.11 2220.75 2445.62 2228.23 2460.56C2235.7 2475.54 2248.17 2465.56 2260.65 2480.52C2273.11 2495.5 2290.58 2495.5 2308.03 2495.5C2325.48 2495.5 2308.03 2480.52 2335.46 2500.48C2362.91 2520.43 2382.85 2522.91 2395.32 2562.82C2407.79 2602.75 2432.73 2600.23 2412.77 2640.14C2392.83 2680.05 2352.93 2697.5 2370.38 2695.01C2387.83 2692.5 2420.26 2677.53 2430.23 2680.04C2440.21 2682.52 2445.19 2672.56 2460.16 2680.04C2475.13 2687.52 2477.63 2670.07 2475.13 2687.52C2472.63 2704.98 2472.63 2687.52 2472.63 2704.98C2472.63 2722.43 2467.64 2687.52 2497.57 2695.01C2527.5 2702.48 2510.04 2680.03 2544.95 2712.46C2579.88 2744.89 2579.88 2734.91 2592.33 2752.36C2604.81 2769.8 2617.27 2742.4 2624.76 2749.87C2632.25 2757.34 2654.69 2752.35 2677.14 2757.35C2699.59 2762.32 2684.62 2742.39 2719.55 2764.83C2754.45 2787.26 2789.38 2779.79 2796.86 2799.74C2804.34 2819.68 2824.3 2812.2 2834.26 2824.68C2844.22 2837.16 2849.22 2819.68 2859.21 2837.16C2869.18 2854.59 2899.12 2849.61 2894.12 2867.06C2889.12 2884.53 2901.59 2874.55 2896.6 2899.48C2891.63 2924.44 2874.15 2964.34 2859.21 2974.3C2844.24 2984.28 2844.25 2996.75 2834.26 3009.21C2824.29 3021.7 2826.78 2996.75 2814.31 3031.66C2801.84 3066.58 2804.34 3071.57 2794.36 3103.97C2784.39 3136.38 2791.87 3103.97 2784.39 3136.39C2776.91 3168.81 2781.9 3188.76 2774.42 3226.18C2766.94 3263.57 2769.43 3263.58 2764.45 3291.02C2759.46 3318.45 2776.91 3278.56 2754.46 3335.9C2732.02 3393.27 2729.53 3390.76 2722.05 3415.71C2714.56 3440.66 2724.54 3420.69 2697.11 3435.66C2669.67 3450.64 2684.64 3445.63 2652.21 3455.61C2619.8 3465.59 2579.89 3475.58 2567.42 3478.06C2554.96 3480.54 2505.07 3495.51 2520.04 3525.43C2535.01 3555.36 2535.01 3560.35 2520.04 3597.76C2505.07 3635.16 2482.63 3647.65 2482.63 3665.08C2482.63 3682.53 2472.65 3699.98 2470.17 3712.46C2467.66 3724.94 2492.61 3699.98 2462.69 3737.4C2432.76 3774.8 2430.27 3764.83 2420.28 3787.28C2410.31 3809.72 2420.28 3792.25 2410.31 3809.72C2400.34 3827.17 2375.4 3834.65 2375.4 3834.65C2375.4 3834.65 2377.88 3847.12 2367.91 3842.14C2357.92 3837.16 2360.43 3844.63 2323.01 3834.65C2285.6 3824.67 2280.61 3799.76 2275.63 3817.2C2270.64 3834.65 2278.12 3844.64 2300.57 3862.09C2323.01 3879.55 2360.43 3884.53 2350.44 3902C2340.47 3919.46 2340.47 3919.46 2332.99 3929.43C2325.5 3939.41 2342.96 3931.92 2325.5 3939.41C2308.05 3946.89 2298.07 3979.32 2290.59 3979.32C2283.11 3979.32 2278.11 3991.79 2268.14 3986.8C2258.17 3981.8 2233.23 3964.35 2228.24 3974.33C2223.25 3984.29 2213.27 3961.85 2215.76 3996.76C2218.26 4031.67 2223.25 4051.63 2210.77 4059.12C2198.31 4066.6 2168.37 4059.12 2168.37 4059.12L2163.38 4046.64L2145.93 4051.63C2145.93 4051.63 2138.45 4081.55 2150.92 4086.54C2163.38 4091.52 2160.89 4096.5 2173.35 4111.47C2185.83 4126.44 2178.35 4153.87 2178.35 4153.87C2178.35 4153.87 2178.35 4161.36 2165.89 4173.82C2153.42 4186.29 2148.42 4196.27 2145.93 4203.75C2143.43 4211.23 2128.47 4243.66 2150.92 4241.15C2173.35 4238.65 2190.83 4226.18 2190.83 4266.09C2190.83 4305.99 2200.8 4296.03 2188.34 4323.45C2175.86 4350.88 2165.89 4353.38 2163.39 4378.31C2160.91 4403.25 2165.9 4405.74 2170.88 4420.71C2175.87 4435.68 2188.35 4428.19 2175.87 4435.68C2163.46 4442.77 2126.12 4435.34 2126.12 4435.34L2126.02 4435.69Z" fill="#B2B2B2"/>
<path d="M1482.57 2405.7L1465.12 2380.77C1465.12 2380.77 1457.64 2365.79 1445.17 2363.31C1432.69 2360.83 1405.25 2328.4 1405.25 2328.4C1405.25 2328.4 1392.79 2318.42 1392.79 2300.97C1392.79 2283.51 1382.8 2256.09 1390.28 2226.16C1397.77 2196.25 1400.27 2158.83 1397.77 2148.85C1395.27 2138.88 1410.24 2136.39 1392.79 2126.4C1375.32 2116.43 1340.41 2113.94 1317.96 2113.94C1295.52 2113.94 1268.08 2121.43 1263.09 2123.91C1258.1 2126.4 1290.53 2049.1 1295.51 2036.64C1300.5 2024.17 1322.95 1969.3 1322.95 1961.83C1322.95 1954.34 1330.43 1951.85 1315.47 1941.89C1300.51 1931.9 1275.57 1926.92 1260.6 1934.4C1245.64 1941.89 1248.13 1924.42 1235.67 1954.34C1223.2 1984.28 1210.72 2016.7 1195.75 2021.68C1180.8 2026.68 1150.87 2041.63 1150.87 2041.63C1150.87 2041.63 1113.46 2039.14 1100.98 2036.65C1088.52 2034.16 1036.14 2006.72 1026.17 1989.27C1016.19 1971.81 1011.21 1934.4 1011.21 1916.96C1011.21 1899.5 1038.63 1847.13 1036.14 1834.66C1033.65 1822.19 1063.59 1772.31 1061.08 1764.82C1058.58 1757.35 1066.07 1732.41 1073.55 1722.43C1081.03 1712.46 1118.45 1699.99 1128.42 1690.02C1138.39 1680.03 1155.85 1667.58 1173.3 1662.58C1190.76 1657.59 1205.74 1652.61 1218.2 1652.61C1230.67 1652.61 1263.09 1625.18 1268.08 1652.61C1273.07 1680.03 1295.52 1670.06 1307.99 1672.55C1320.45 1675.06 1322.96 1687.52 1342.9 1655.1C1362.86 1622.67 1382.8 1612.7 1382.8 1620.18C1382.8 1627.67 1415.23 1617.7 1420.21 1625.18C1425.2 1632.66 1435.18 1620.18 1452.63 1635.15C1470.1 1650.12 1495.03 1652.61 1492.53 1660.08C1490.04 1667.56 1502.51 1667.56 1502.51 1675.05C1502.51 1682.53 1512.49 1657.59 1512.49 1702.47C1512.49 1747.36 1524.96 1774.8 1524.96 1774.8C1524.96 1774.8 1542.41 1812.21 1549.89 1804.72C1557.37 1797.24 1572.33 1777.3 1572.33 1777.3C1572.33 1777.3 1597.27 1762.33 1579.82 1709.96C1562.35 1657.6 1574.83 1642.63 1569.84 1625.17C1564.85 1607.71 1564.85 1597.72 1594.77 1575.29C1624.7 1552.85 1697.03 1502.97 1714.49 1493C1731.94 1483.03 1771.84 1455.59 1771.84 1455.59C1771.84 1455.59 1786.8 1448.12 1789.3 1428.16C1791.8 1408.22 1839.18 1373.3 1841.68 1363.32C1844.19 1353.35 1876.61 1328.42 1876.61 1328.42C1876.61 1328.42 1911.51 1308.46 1909.02 1296.01C1906.52 1283.54 1953.92 1261.1 1961.4 1261.1C1968.88 1261.1 2008.79 1273.56 2008.79 1251.11C2008.79 1228.67 2008.79 1223.68 2033.73 1203.73C2058.66 1183.79 2091.08 1153.85 2103.56 1153.85C2116.02 1153.85 2158.43 1131.43 2175.88 1126.43C2193.34 1121.44 2248.21 1096.5 2198.33 1126.43C2148.45 1156.35 2180.87 1138.9 2170.9 1163.84C2160.93 1188.77 2153.43 1221.2 2200.82 1183.78C2248.22 1146.38 2245.71 1138.89 2263.17 1136.4C2280.64 1133.91 2268.16 1143.88 2305.57 1131.41C2342.99 1118.94 2345.48 1113.96 2345.48 1113.96C2345.48 1113.96 2362.94 1098.99 2352.96 1091.52C2342.99 1084.03 2362.94 1074.06 2325.52 1089.02C2288.12 1103.99 2290.61 1106.48 2265.67 1098.99C2240.74 1091.51 2203.32 1093.99 2230.75 1069.05C2258.19 1044.12 2293.1 1036.63 2270.65 1026.66C2248.22 1016.69 2190.85 1029.17 2183.37 1031.65C2175.88 1034.14 2158.43 1029.15 2143.46 1031.65C2128.5 1034.14 2133.49 1011.72 2143.46 1006.72C2153.44 1001.72 2185.86 986.754 2225.77 976.782C2265.67 966.81 2362.94 964.318 2385.38 964.318C2407.82 964.318 2437.75 969.314 2455.21 956.839C2472.66 944.374 2507.59 924.431 2512.57 914.437C2517.57 904.466 2537.52 889.508 2537.52 889.508C2537.52 889.508 2559.95 867.061 2547.49 857.09C2535.02 847.118 2522.55 824.671 2512.57 829.657C2502.6 834.643 2510.09 864.58 2490.14 832.15C2470.18 799.742 2472.67 794.745 2462.7 787.267C2452.73 779.788 2442.74 784.763 2450.24 749.862C2457.71 714.951 2455.22 699.982 2455.22 699.982C2455.22 699.982 2462.7 670.067 2455.22 667.575C2447.73 665.071 2442.76 657.603 2430.29 665.071C2417.81 672.549 2347.98 707.472 2333.03 714.951C2318.06 722.429 2298.1 685.025 2305.58 667.575C2313.07 650.102 2308.07 660.085 2298.1 635.156C2288.13 610.216 2248.23 605.219 2233.26 605.219C2218.29 605.219 2183.38 582.772 2173.4 597.74C2163.43 612.698 2111.06 660.074 2101.07 665.071C2091.09 670.067 2076.13 622.68 2068.66 699.982C2061.16 777.306 2096.09 799.742 2056.19 804.728C2016.29 809.714 1981.36 832.15 1981.36 832.15C1981.36 832.15 1948.95 834.654 1948.95 854.597C1948.95 874.562 1936.49 921.927 1921.51 926.913C1906.55 931.91 1869.13 924.431 1856.66 909.463C1844.2 894.494 1859.16 839.64 1859.16 839.64L1881.6 817.193C1881.6 817.193 1721.99 792.264 1724.47 782.281C1726.98 772.309 1677.09 754.859 1672.11 739.891C1667.12 724.922 1664.62 692.503 1669.61 680.039C1674.6 667.575 1741.93 607.723 1776.85 595.259C1811.76 582.783 1871.62 555.361 1889.08 550.364C1906.55 545.378 1936.46 547.871 1946.45 535.407C1956.42 522.931 1958.91 500.495 1958.91 500.495C1958.91 500.495 1953.93 465.573 1963.9 470.558C1973.87 475.555 1991.34 483.034 1993.83 490.513C1996.33 497.991 1996.33 515.453 2013.78 495.487C2031.25 475.544 2053.7 468.055 2073.64 458.094C2093.6 448.111 2123.51 450.615 2140.99 440.644C2158.44 430.672 2188.37 420.69 2190.86 395.75C2193.36 370.821 2183.38 378.299 2170.91 375.795C2158.44 373.313 2175.89 378.299 2133.5 398.242C2091.09 418.186 2103.57 403.228 2073.64 418.186C2043.71 433.154 2041.21 435.647 2038.73 423.182C2036.22 410.707 2043.71 390.764 2043.71 390.764C2043.71 390.764 2046.22 388.26 2028.75 383.285C2011.29 378.299 2011.29 385.778 2008.8 363.342C2006.31 340.895 2021.26 308.476 1996.33 318.448C1971.39 328.419 1948.95 310.969 1931.49 360.838C1914.03 410.707 1854.17 463.091 1839.2 450.615C1824.24 438.151 1821.75 435.647 1809.27 435.647C1796.79 435.647 1779.34 420.69 1756.89 418.197C1734.44 415.704 1667.1 415.704 1649.66 418.197C1632.19 420.701 1612.25 408.225 1597.27 423.194C1582.31 438.151 1559.87 458.105 1559.87 465.595C1559.87 473.074 1537.42 438.151 1529.94 440.655C1522.46 443.148 1502.5 430.683 1480.07 430.683C1457.62 430.683 1442.65 418.208 1435.18 418.208C1427.7 418.208 1442.65 398.254 1435.18 395.761C1427.7 393.279 1265.57 388.282 1265.57 388.282C1265.57 388.282 1213.21 368.339 1193.26 370.832C1173.3 373.325 1118.45 375.806 1076.03 383.296C1033.62 390.775 971.274 415.715 951.329 418.208C931.373 420.712 886.486 420.712 879.006 408.236C871.516 395.772 881.499 398.265 871.516 395.772C861.543 393.29 869.034 388.293 846.585 370.843C824.136 353.381 856.568 338.424 811.67 338.424C766.783 338.424 739.347 335.92 699.446 338.424C659.534 340.917 577.239 360.86 567.267 358.367C557.294 355.874 477.481 370.843 465.005 363.364C452.539 355.874 390.178 390.786 377.724 388.293C365.258 385.8 317.867 390.797 305.401 398.276C292.924 405.765 233.067 420.712 253.023 433.187C272.968 445.652 270.475 458.116 272.968 465.606C275.473 473.085 253.023 490.535 253.023 490.535C253.023 490.535 248.026 490.535 220.602 480.563C193.166 470.581 163.238 465.606 150.761 473.085C138.296 480.563 115.847 495.543 120.833 505.514C125.83 515.486 160.734 537.933 165.731 530.443C170.717 522.965 183.194 508.007 198.153 510.5C213.122 513.004 235.572 500.529 215.616 525.469C195.66 550.397 178.197 562.873 165.731 565.377C153.265 567.859 123.337 570.352 95.9016 572.856C68.4552 575.36 70.9483 562.884 46.0171 587.824C21.0859 612.753 11.1024 597.796 6.11617 625.229C1.12993 652.65 -3.8563 652.65 6.11617 660.14C16.0886 667.619 -13.8399 670.112 8.60928 677.59C31.0473 685.08 58.4827 692.559 55.9896 700.027C53.4854 707.516 80.9318 690.066 65.9621 709.998C50.9923 729.963 41.0309 747.403 70.9483 727.459C100.877 707.516 118.329 722.463 143.271 709.998C168.213 697.534 193.155 695.041 208.114 685.069C223.084 675.087 230.563 660.14 253.012 652.639C275.461 645.161 260.492 655.143 262.985 667.608C265.478 680.072 262.985 682.565 277.955 672.583C292.913 662.611 292.913 670.101 312.869 657.625C332.814 645.161 355.263 632.685 370.233 640.164C385.192 647.654 390.178 647.654 400.162 647.654C410.134 647.654 387.696 645.15 410.134 647.654C432.583 650.135 400.162 640.164 474.977 657.625C549.804 675.075 569.76 662.611 574.735 690.044C579.733 717.477 589.705 687.54 602.171 705.001C614.636 722.451 622.127 707.505 629.606 737.42C637.085 767.357 629.606 849.644 624.62 859.616C619.633 869.588 617.14 869.588 619.633 892.035C622.127 914.471 652.055 1021.72 642.083 1029.19C632.11 1036.66 609.661 1039.16 609.661 1039.16L597.195 1084.04C597.195 1084.04 577.25 1121.45 559.788 1141.4C542.325 1161.34 519.887 1186.3 507.41 1203.73C494.944 1221.2 484.961 1251.13 467.509 1268.58C450.057 1286.03 435.087 1278.55 440.074 1315.96C445.06 1353.36 440.074 1393.26 445.06 1420.71C450.057 1448.14 462.523 1485.54 472.495 1500.51C482.468 1515.47 489.958 1515.47 507.41 1527.93C524.873 1540.4 547.322 1555.38 544.818 1567.84C542.325 1580.31 547.311 1657.63 547.311 1657.63C547.311 1657.63 562.281 1682.56 564.763 1709.99C567.267 1737.44 584.719 1764.86 584.719 1764.86L599.689 1797.29C599.689 1797.29 607.168 1799.79 617.151 1819.72C627.124 1839.68 627.124 1839.68 629.617 1849.64C632.121 1859.63 632.121 1857.13 632.121 1859.63C632.121 1862.11 629.617 1817.23 624.631 1804.75C619.645 1792.29 619.645 1777.33 614.658 1762.36C609.672 1747.4 617.151 1729.93 602.193 1707.5C587.234 1685.06 587.234 1682.56 579.755 1660.11C572.275 1637.68 562.292 1612.74 572.275 1607.74C582.248 1602.76 589.727 1570.35 609.683 1607.74C629.628 1645.14 632.132 1635.18 634.625 1665.11C637.107 1695.03 644.598 1705.02 652.077 1717.47C659.557 1729.93 677.008 1772.35 686.992 1789.79C696.964 1807.25 686.992 1779.81 709.43 1814.73C731.879 1849.64 734.383 1857.12 746.849 1884.55C759.314 1911.98 766.805 1911.98 774.284 1931.93C781.764 1951.89 776.777 1946.89 771.78 1969.33C766.794 1991.77 776.766 2016.72 776.766 2016.72C776.766 2016.72 811.681 2029.18 814.174 2036.66C816.667 2044.14 851.582 2056.6 856.579 2066.59C861.566 2076.57 893.987 2089.02 893.987 2089.02C893.987 2089.02 921.422 2106.48 931.384 2111.47C941.367 2116.46 971.307 2121.45 971.307 2121.45C971.307 2121.45 991.252 2126.45 998.731 2128.93C1006.21 2131.42 1028.66 2131.42 1028.66 2131.42C1028.66 2131.42 1048.62 2116.47 1056.1 2121.45C1063.57 2126.43 1081.04 2111.47 1088.52 2123.93C1096 2136.41 1110.97 2136.41 1118.45 2146.39C1125.92 2156.36 1133.4 2156.36 1145.88 2168.83C1158.36 2181.29 1170.82 2178.8 1183.29 2188.77C1195.75 2198.74 1205.73 2198.74 1220.7 2198.74C1235.65 2198.74 1235.65 2198.74 1245.64 2201.25C1255.6 2203.74 1260.6 2193.76 1270.57 2206.24C1280.54 2218.71 1288.02 2226.19 1295.5 2238.65C1302.98 2251.12 1320.44 2251.12 1322.94 2271.07C1325.43 2291.01 1330.42 2288.54 1330.42 2305.98C1330.42 2323.44 1340.39 2330.92 1347.88 2335.92C1355.35 2340.89 1382.78 2365.82 1382.78 2365.82L1420.19 2373.31L1450.12 2395.76L1481.7 2405.73L1482.57 2405.7Z" fill="#B2B2B2"/>
<path d="M2281.92 88.9686L2431.56 70.2663C2431.56 70.2663 2483.93 70.2663 2510.13 51.5641C2536.31 32.8619 2510.13 32.8619 2588.69 17.9045C2667.25 2.93607 2644.81 -4.54261 2685.96 2.93607C2727.1 10.4258 2738.33 10.4258 2783.23 17.9045C2828.11 25.3832 2839.34 14.1707 2880.48 25.3832C2921.63 36.6067 2940.34 32.8619 2974.01 32.8619H3078.76C3131.13 32.8619 3179.77 2.93607 3198.47 21.6383C3217.17 40.3405 3228.4 32.8619 3292 40.3405C3355.59 47.8192 3381.79 32.8508 3407.97 40.3405C3434.16 47.8192 3479.06 36.6067 3531.43 40.3405C3583.79 44.0743 3609.99 36.6067 3628.69 36.6067C3647.4 36.6067 3666.09 10.4148 3692.28 32.8619C3718.48 55.309 3752.14 25.3832 3755.88 55.309C3759.62 85.2348 3808.25 62.7877 3759.62 85.2348C3710.99 107.682 3718.47 103.937 3684.79 133.863C3651.13 163.789 3707.24 189.97 3636.16 216.162C3565.08 242.342 3553.86 201.193 3535.15 246.087C3516.45 290.97 3535.15 302.194 3531.42 324.641C3527.67 347.077 3520.19 350.822 3497.74 369.524C3475.31 388.227 3475.31 369.524 3422.93 380.748C3370.55 391.971 3333.14 403.195 3310.7 403.195C3288.26 403.195 3239.62 421.897 3224.65 429.376C3209.68 436.866 3250.85 448.078 3172.28 470.525C3093.71 492.972 3075 489.239 3052.56 519.153C3030.11 549.09 3037.59 552.835 3022.63 571.537C3007.66 590.239 2962.78 665.06 2940.33 646.357C2917.89 627.655 2906.65 631.389 2887.95 612.687C2869.25 593.984 2858.02 567.803 2846.8 552.835C2835.57 537.867 2831.83 500.462 2828.09 478.015C2824.36 455.568 2790.67 403.206 2828.09 410.685C2865.5 418.163 2887.95 414.43 2899.17 406.951C2910.4 399.461 2921.62 373.28 2921.62 373.28C2921.62 373.28 2917.89 332.131 2906.65 309.684C2895.43 287.237 2902.92 268.534 2884.21 246.098C2865.51 223.651 2865.51 227.396 2839.32 204.949C2813.13 182.502 2820.61 171.278 2779.46 167.545C2738.31 163.811 2727.08 152.576 2712.11 156.321C2697.15 160.055 2648.52 130.129 2700.89 126.395C2753.27 122.65 2801.9 130.129 2801.9 130.129C2801.9 130.129 2869.23 100.203 2846.8 96.4694C2824.36 92.7245 2880.46 59.0539 2828.09 70.2774C2775.71 81.501 2715.87 96.4694 2700.9 100.203C2685.94 103.937 2648.52 107.682 2611.11 118.905C2573.72 130.129 2528.81 126.395 2506.37 152.576C2483.92 178.757 2506.37 182.502 2483.92 178.757C2461.48 175.023 2502.62 152.576 2450.26 178.757C2397.88 204.949 2412.85 201.204 2386.67 193.725C2360.47 186.247 2341.77 175.023 2341.77 175.023C2341.77 175.023 2375.45 171.278 2326.81 167.545C2278.18 163.811 2278.18 163.811 2259.47 141.353C2240.77 118.905 2251.99 118.905 2263.21 111.427C2274.29 103.937 2281.82 88.9686 2281.82 88.9686H2281.92Z" fill="#B2B2B2"/>
<path d="M2199.59 257.3C2180.89 276.002 2135.99 302.194 2147.23 313.418C2158.45 324.641 2165.93 365.79 2188.38 354.567C2210.82 343.343 2184.64 305.939 2270.68 335.865C2356.73 365.79 2349.24 332.131 2367.94 377.014C2386.64 421.897 2401.6 455.557 2390.38 466.791C2379.16 478.015 2375.42 489.239 2338 500.462C2300.59 511.686 2285.62 526.654 2311.82 545.345C2338 564.048 2386.64 582.75 2409.08 593.984C2431.53 605.197 2498.87 608.953 2465.19 571.548C2431.52 534.144 2472.67 522.909 2472.67 522.909C2472.67 522.909 2536.28 571.548 2513.84 515.431C2491.39 459.324 2476.42 459.324 2491.39 459.324C2506.36 459.324 2536.28 478.026 2536.28 478.026L2551.25 448.1L2536.28 399.472L2487.64 350.844C2487.64 350.844 2528.78 313.44 2472.67 305.961C2416.56 298.482 2420.3 298.482 2390.37 279.769C2360.44 261.067 2356.7 253.588 2300.58 264.812C2244.47 276.035 2225.77 283.514 2225.77 283.514L2199.73 257.3H2199.59Z" fill="#B2B2B2"/>
<path d="M1365.34 302.194C1387.79 279.747 1447.65 227.385 1470.1 242.342C1492.54 257.3 1526.2 231.119 1552.39 253.566C1578.58 276.013 1608.5 302.194 1630.95 309.673C1653.4 317.151 1679.59 290.97 1702.03 302.194C1724.47 313.418 1803.03 246.087 1788.07 298.46C1773.1 350.833 1806.78 365.79 1765.63 369.535C1724.47 373.28 1679.59 403.206 1660.87 391.982C1642.17 380.759 1627.2 369.535 1597.27 384.504C1567.34 399.461 1582.31 399.461 1548.64 391.982C1514.97 384.504 1507.49 399.461 1500.01 388.238C1492.52 377.025 1470.09 380.759 1473.82 347.088C1477.55 313.429 1488.78 317.162 1466.33 317.162C1443.89 317.162 1425.19 320.907 1410.22 309.684C1395.37 298.46 1365.45 302.194 1365.45 302.194H1365.34Z" fill="#B2B2B2"/>
</g>
<defs>
<clipPath id="clip0_21_6893">
<rect width="8677" height="4439" fill="white"/>
</clipPath>
</defs>
</svg>
