<svg width="20" height="24" viewBox="0 0 20 24" fill="none" xmlns="http://www.w3.org/2000/svg">
<path fill-rule="evenodd" clip-rule="evenodd" d="M9.99999 22.3334C14.6024 22.3334 18.3333 18.6025 18.3333 14.0001C18.3333 9.39771 14.6024 5.66675 9.99999 5.66675C5.39762 5.66675 1.66666 9.39771 1.66666 14.0001C1.66666 18.6025 5.39762 22.3334 9.99999 22.3334ZM14.8738 12.2072C15.2643 11.8167 15.2643 11.1835 14.8738 10.793C14.4832 10.4025 13.8501 10.4025 13.4595 10.793L9.16666 15.0859L7.37376 13.293C6.98324 12.9025 6.35007 12.9025 5.95955 13.293C5.56903 13.6835 5.56903 14.3167 5.95955 14.7072L8.45955 17.2072C8.85007 17.5977 9.48324 17.5977 9.87376 17.2072L14.8738 12.2072Z" fill="#45B36B"/>
</svg>
