<svg width="185" height="25" viewBox="0 0 185 25" fill="none" xmlns="http://www.w3.org/2000/svg">
<g clip-path="url(#clip0_30_4412)">
<path d="M13.246 2.42112L16.356 8.72112L23.31 9.73312C23.4636 9.75527 23.6079 9.81999 23.7266 9.91994C23.8453 10.0199 23.9337 10.1511 23.9817 10.2987C24.0296 10.4463 24.0353 10.6043 23.9981 10.755C23.9609 10.9057 23.8822 11.0429 23.771 11.1511L18.738 16.0511L19.926 22.9771C19.9522 23.1301 19.9351 23.2874 19.8766 23.4311C19.8181 23.5749 19.7205 23.6994 19.595 23.7907C19.4694 23.8819 19.3208 23.9362 19.166 23.9474C19.0112 23.9586 18.8564 23.9263 18.719 23.8541L12.5 20.5891L6.27997 23.8571C6.14245 23.929 5.98759 23.961 5.83285 23.9496C5.6781 23.9382 5.52963 23.8838 5.40415 23.7925C5.27867 23.7012 5.18118 23.5767 5.12267 23.433C5.06415 23.2893 5.04694 23.1321 5.07297 22.9791L6.26097 16.0571L1.22797 11.1571C1.11675 11.0489 1.03807 10.9117 1.00084 10.761C0.963602 10.6103 0.969297 10.4523 1.01728 10.3047C1.06526 10.1571 1.15361 10.0259 1.27232 9.92594C1.39103 9.82599 1.53536 9.76127 1.68897 9.73912L8.64296 8.72212L11.753 2.42212C11.8218 2.28295 11.9281 2.16577 12.0599 2.08381C12.1918 2.00184 12.3439 1.95836 12.4992 1.95825C12.6544 1.95815 12.8066 2.00143 12.9385 2.08322C13.0705 2.16501 13.177 2.28204 13.246 2.42112Z" fill="#FF6E30"/>
</g>
<g clip-path="url(#clip1_30_4412)">
<path d="M53.246 2.42112L56.356 8.72112L63.31 9.73312C63.4636 9.75527 63.6079 9.81999 63.7266 9.91994C63.8453 10.0199 63.9337 10.1511 63.9817 10.2987C64.0296 10.4463 64.0353 10.6043 63.9981 10.755C63.9609 10.9057 63.8822 11.0429 63.771 11.1511L58.738 16.0511L59.926 22.9771C59.9522 23.1301 59.9351 23.2874 59.8766 23.4311C59.8181 23.5749 59.7205 23.6994 59.595 23.7907C59.4694 23.8819 59.3208 23.9362 59.166 23.9474C59.0112 23.9586 58.8564 23.9263 58.719 23.8541L52.5 20.5891L46.28 23.8571C46.1424 23.929 45.9876 23.961 45.8328 23.9496C45.6781 23.9382 45.5296 23.8838 45.4041 23.7925C45.2787 23.7012 45.1812 23.5767 45.1227 23.433C45.0642 23.2893 45.0469 23.1321 45.073 22.9791L46.261 16.0571L41.228 11.1571C41.1168 11.0489 41.0381 10.9117 41.0008 10.761C40.9636 10.6103 40.9693 10.4523 41.0173 10.3047C41.0653 10.1571 41.1536 10.0259 41.2723 9.92594C41.391 9.82599 41.5354 9.76127 41.689 9.73912L48.643 8.72212L51.753 2.42212C51.8218 2.28295 51.9281 2.16577 52.0599 2.08381C52.1918 2.00184 52.3439 1.95836 52.4992 1.95825C52.6544 1.95815 52.8066 2.00143 52.9385 2.08322C53.0705 2.16501 53.177 2.28204 53.246 2.42112Z" fill="#FF6E30"/>
</g>
<g clip-path="url(#clip2_30_4412)">
<path d="M93.246 2.42112L96.356 8.72112L103.31 9.73312C103.464 9.75527 103.608 9.81999 103.727 9.91994C103.845 10.0199 103.934 10.1511 103.982 10.2987C104.03 10.4463 104.035 10.6043 103.998 10.755C103.961 10.9057 103.882 11.0429 103.771 11.1511L98.738 16.0511L99.926 22.9771C99.9522 23.1301 99.9351 23.2874 99.8766 23.4311C99.8181 23.5749 99.7205 23.6994 99.595 23.7907C99.4694 23.8819 99.3208 23.9362 99.166 23.9474C99.0112 23.9586 98.8564 23.9263 98.719 23.8541L92.5 20.5891L86.28 23.8571C86.1424 23.929 85.9876 23.961 85.8328 23.9496C85.6781 23.9382 85.5296 23.8838 85.4041 23.7925C85.2787 23.7012 85.1812 23.5767 85.1227 23.433C85.0642 23.2893 85.0469 23.1321 85.073 22.9791L86.261 16.0571L81.228 11.1571C81.1168 11.0489 81.0381 10.9117 81.0008 10.761C80.9636 10.6103 80.9693 10.4523 81.0173 10.3047C81.0653 10.1571 81.1536 10.0259 81.2723 9.92594C81.391 9.82599 81.5354 9.76127 81.689 9.73912L88.643 8.72212L91.753 2.42212C91.8218 2.28295 91.9281 2.16577 92.0599 2.08381C92.1918 2.00184 92.3439 1.95836 92.4992 1.95825C92.6544 1.95815 92.8066 2.00143 92.9385 2.08322C93.0705 2.16501 93.177 2.28204 93.246 2.42112Z" fill="#FF6E30"/>
</g>
<g clip-path="url(#clip3_30_4412)">
<path d="M133.246 2.42112L136.356 8.72112L143.31 9.73312C143.464 9.75527 143.608 9.81999 143.727 9.91994C143.845 10.0199 143.934 10.1511 143.982 10.2987C144.03 10.4463 144.035 10.6043 143.998 10.755C143.961 10.9057 143.882 11.0429 143.771 11.1511L138.738 16.0511L139.926 22.9771C139.952 23.1301 139.935 23.2874 139.877 23.4311C139.818 23.5749 139.721 23.6994 139.595 23.7907C139.469 23.8819 139.321 23.9362 139.166 23.9474C139.011 23.9586 138.856 23.9263 138.719 23.8541L132.5 20.5891L126.28 23.8571C126.142 23.929 125.988 23.961 125.833 23.9496C125.678 23.9382 125.53 23.8838 125.404 23.7925C125.279 23.7012 125.181 23.5767 125.123 23.433C125.064 23.2893 125.047 23.1321 125.073 22.9791L126.261 16.0571L121.228 11.1571C121.117 11.0489 121.038 10.9117 121.001 10.761C120.964 10.6103 120.969 10.4523 121.017 10.3047C121.065 10.1571 121.154 10.0259 121.272 9.92594C121.391 9.82599 121.535 9.76127 121.689 9.73912L128.643 8.72212L131.753 2.42212C131.822 2.28295 131.928 2.16577 132.06 2.08381C132.192 2.00184 132.344 1.95836 132.499 1.95825C132.654 1.95815 132.807 2.00143 132.939 2.08322C133.071 2.16501 133.177 2.28204 133.246 2.42112Z" fill="#FF6E30"/>
</g>
<g clip-path="url(#clip4_30_4412)">
<path d="M173.246 2.42112L176.356 8.72112L183.31 9.73312C183.464 9.75527 183.608 9.81999 183.727 9.91994C183.845 10.0199 183.934 10.1511 183.982 10.2987C184.03 10.4463 184.035 10.6043 183.998 10.755C183.961 10.9057 183.882 11.0429 183.771 11.1511L178.738 16.0511L179.926 22.9771C179.952 23.1301 179.935 23.2874 179.877 23.4311C179.818 23.5749 179.721 23.6994 179.595 23.7907C179.469 23.8819 179.321 23.9362 179.166 23.9474C179.011 23.9586 178.856 23.9263 178.719 23.8541L172.5 20.5891L166.28 23.8571C166.142 23.929 165.988 23.961 165.833 23.9496C165.678 23.9382 165.53 23.8838 165.404 23.7925C165.279 23.7012 165.181 23.5767 165.123 23.433C165.064 23.2893 165.047 23.1321 165.073 22.9791L166.261 16.0571L161.228 11.1571C161.117 11.0489 161.038 10.9117 161.001 10.761C160.964 10.6103 160.969 10.4523 161.017 10.3047C161.065 10.1571 161.154 10.0259 161.272 9.92594C161.391 9.82599 161.535 9.76127 161.689 9.73912L168.643 8.72212L171.753 2.42212C171.822 2.28295 171.928 2.16577 172.06 2.08381C172.192 2.00184 172.344 1.95836 172.499 1.95825C172.654 1.95815 172.807 2.00143 172.939 2.08322C173.071 2.16501 173.177 2.28204 173.246 2.42112Z" fill="#FF6E30"/>
</g>
<defs>
<clipPath id="clip0_30_4412">
<rect width="24" height="24" fill="white" transform="translate(0.5 0.957031)"/>
</clipPath>
<clipPath id="clip1_30_4412">
<rect width="24" height="24" fill="white" transform="translate(40.5 0.957031)"/>
</clipPath>
<clipPath id="clip2_30_4412">
<rect width="24" height="24" fill="white" transform="translate(80.5 0.957031)"/>
</clipPath>
<clipPath id="clip3_30_4412">
<rect width="24" height="24" fill="white" transform="translate(120.5 0.957031)"/>
</clipPath>
<clipPath id="clip4_30_4412">
<rect width="24" height="24" fill="white" transform="translate(160.5 0.957031)"/>
</clipPath>
</defs>
</svg>
