<svg width="81" height="80" viewBox="0 0 81 80" fill="none" xmlns="http://www.w3.org/2000/svg">
<rect x="0.5" width="80" height="80" rx="24" fill="#3772FF"/>
<path d="M52.5 33.1667H50.5V29.2619C50.5 23.8733 46.02 19.5 40.5 19.5C34.98 19.5 30.5 23.8733 30.5 29.2619H34.5C34.5 26.021 37.18 23.4048 40.5 23.4048C43.82 23.4048 46.5 26.021 46.5 29.2619V33.1667H28.5C26.3 33.1667 24.5 34.9238 24.5 37.0714V56.5952C24.5 58.7429 26.3 60.5 28.5 60.5H52.5C54.7 60.5 56.5 58.7429 56.5 56.5952V37.0714C56.5 34.9238 54.7 33.1667 52.5 33.1667ZM52.5 56.5952H28.5V37.0714H52.5V56.5952ZM40.5 50.7381C42.7 50.7381 44.5 48.981 44.5 46.8333C44.5 44.6857 42.7 42.9286 40.5 42.9286C38.3 42.9286 36.5 44.6857 36.5 46.8333C36.5 48.981 38.3 50.7381 40.5 50.7381Z" fill="white"/>
</svg>
