<svg width="81" height="80" viewBox="0 0 81 80" fill="none" xmlns="http://www.w3.org/2000/svg">
<rect x="0.5" width="80" height="80" rx="24" fill="#EF466F"/>
<path d="M44.0589 28.3555C42.5004 28.3555 40.977 28.8261 39.6813 29.7079C38.3856 30.5896 37.3759 31.8428 36.7798 33.309C36.1838 34.7751 36.0283 36.3883 36.3329 37.9445C36.6375 39.5007 37.3886 40.9299 38.4912 42.0514C39.5938 43.1728 40.9982 43.9361 42.5269 44.2447C44.0556 44.5533 45.6399 44.3932 47.0792 43.7849C48.5186 43.1765 49.7484 42.1471 50.6131 40.827C51.4777 39.5068 51.9384 37.9552 51.9368 36.3684C51.9325 34.2432 51.1009 32.2063 49.6242 30.7043C48.1475 29.2023 46.1462 28.3576 44.0589 28.3555V28.3555ZM44.0589 35.5449C44.6089 35.546 45.141 35.7439 45.5623 36.1039C45.9836 36.464 46.2672 36.9634 46.3635 37.5147C46.4599 38.0661 46.3629 38.6344 46.0895 39.1203C45.816 39.6062 45.3836 39.9789 44.8677 40.1731V40.7249C44.8677 40.9433 44.7825 41.1528 44.6308 41.3072C44.4791 41.4616 44.2734 41.5484 44.0589 41.5484C43.8444 41.5484 43.6386 41.4616 43.487 41.3072C43.3353 41.1528 43.2501 40.9433 43.2501 40.7249V40.1731C42.7988 40.005 42.4088 39.7002 42.1327 39.2998C41.8565 38.8993 41.7073 38.4224 41.7052 37.9331C41.7052 37.7147 41.7904 37.5052 41.9421 37.3508C42.0938 37.1964 42.2995 37.1096 42.514 37.1096C42.7285 37.1096 42.9343 37.1964 43.086 37.3508C43.2376 37.5052 43.3229 37.7147 43.3229 37.9331C43.3121 38.0376 43.3229 38.1432 43.3548 38.2431C43.3867 38.343 43.4388 38.4349 43.5078 38.513C43.5768 38.591 43.6612 38.6535 43.7554 38.6962C43.8497 38.7389 43.9517 38.761 44.0548 38.761C44.158 38.761 44.26 38.7389 44.3542 38.6962C44.4485 38.6535 44.5328 38.591 44.6019 38.513C44.6709 38.4349 44.723 38.343 44.7549 38.2431C44.7867 38.1432 44.7976 38.0376 44.7868 37.9331C44.7868 37.7365 44.7101 37.548 44.5736 37.409C44.4371 37.27 44.2519 37.1919 44.0589 37.1919C43.5068 37.1965 42.9709 37.002 42.5462 36.6429C42.1215 36.2837 41.8354 35.7831 41.7385 35.2297C41.6416 34.6763 41.7402 34.1058 42.0169 33.6193C42.2936 33.1329 42.7304 32.7618 43.2501 32.5719V32.0202C43.2501 31.8018 43.3353 31.5923 43.487 31.4379C43.6386 31.2834 43.8444 31.1966 44.0589 31.1966C44.2734 31.1966 44.4791 31.2834 44.6308 31.4379C44.7825 31.5923 44.8677 31.8018 44.8677 32.0202V32.5884C45.3169 32.7564 45.7048 33.0602 45.9795 33.4592C46.2542 33.8581 46.4025 34.333 46.4045 34.8202C46.4045 35.0386 46.3193 35.2481 46.1676 35.4025C46.0159 35.5569 45.8102 35.6437 45.5956 35.6437C45.3811 35.6437 45.1754 35.5569 45.0237 35.4025C44.872 35.2481 44.7868 35.0386 44.7868 34.8202C44.7879 34.7225 44.7698 34.6257 44.7336 34.5352C44.6974 34.4448 44.6438 34.3627 44.576 34.2936C44.5082 34.2246 44.4275 34.17 44.3387 34.1332C44.2499 34.0963 44.1548 34.0779 44.0589 34.079C43.8658 34.079 43.6807 34.1571 43.5441 34.2961C43.4076 34.4351 43.3309 34.6236 43.3309 34.8202C43.3309 35.0167 43.4076 35.2053 43.5441 35.3443C43.6807 35.4833 43.8658 35.5614 44.0589 35.5614V35.5449ZM33.2206 35.5449H30.7942C30.5797 35.5449 30.3739 35.6316 30.2222 35.7861C30.0706 35.9405 29.9854 36.15 29.9854 36.3684C29.9854 36.5868 30.0706 36.7963 30.2222 36.9507C30.3739 37.1052 30.5797 37.1919 30.7942 37.1919H33.2206C33.4352 37.1919 33.6409 37.1052 33.7926 36.9507C33.9443 36.7963 34.0295 36.5868 34.0295 36.3684C34.0295 36.15 33.9443 35.9405 33.7926 35.7861C33.6409 35.6316 33.4352 35.5449 33.2206 35.5449ZM57.3074 35.5449H54.8809C54.6664 35.5449 54.4607 35.6316 54.309 35.7861C54.1573 35.9405 54.0721 36.15 54.0721 36.3684C54.0721 36.5868 54.1573 36.7963 54.309 36.9507C54.4607 37.1052 54.6664 37.1919 54.8809 37.1919H57.3074C57.5219 37.1919 57.7277 37.1052 57.8793 36.9507C58.031 36.7963 58.1162 36.5868 58.1162 36.3684C58.1162 36.15 58.031 35.9405 57.8793 35.7861C57.7277 35.6316 57.5219 35.5449 57.3074 35.5449Z" fill="black"/>
<path d="M63.5917 21.125H24.5336C23.5852 21.1271 22.6758 21.5094 22.0022 22.1891C21.3286 22.8688 20.945 23.7912 20.9343 24.7568C19.9937 24.7675 19.0946 25.1527 18.4295 25.8299C17.7643 26.5071 17.386 27.4226 17.3755 28.3803C16.4272 28.3911 15.5212 28.7817 14.8537 29.4676C14.1861 30.1535 13.8107 31.0794 13.8086 32.045V55.2026C13.8086 56.1753 14.1875 57.1083 14.8623 57.7969C15.5371 58.4855 16.4525 58.8734 17.4079 58.8756H56.474C57.421 58.8713 58.3283 58.4881 59.0002 57.8086C59.6721 57.1292 60.0546 56.2079 60.0652 55.2438C61.0072 55.2331 61.9075 54.8467 62.5729 54.1677C63.2382 53.4887 63.6156 52.5712 63.624 51.6121C64.573 51.6034 65.4802 51.2134 66.1482 50.5271C66.8162 49.8408 67.191 48.9136 67.191 47.9474V24.7897C67.1888 23.8184 66.8089 22.8876 66.1344 22.2008C65.4599 21.514 64.5456 21.1272 63.5917 21.125V21.125ZM60.0329 53.5968H20.9667C20.4411 53.5968 19.9371 53.3842 19.5655 53.0058C19.1938 52.6274 18.9851 52.1142 18.9851 51.5791V28.4215C18.985 27.892 19.1893 27.3837 19.554 27.0063C19.9186 26.6289 20.4144 26.4125 20.9343 26.4038V47.9474C20.9343 48.9193 21.3135 49.8514 21.9885 50.5387C22.3228 50.879 22.7195 51.1489 23.1562 51.3331C23.5929 51.5173 24.0609 51.6121 24.5336 51.6121H62.0064C62 52.1407 61.7893 52.6455 61.4198 53.017C61.0504 53.3885 60.5521 53.5968 60.0329 53.5968ZM63.7049 42.7344C63.7049 42.9528 63.6197 43.1623 63.468 43.3167C63.3163 43.4712 63.1106 43.5579 62.8961 43.5579C61.9372 43.5579 61.0176 43.9458 60.3396 44.6361C59.6616 45.3265 59.2807 46.2628 59.2807 47.2391C59.2807 47.4575 59.1954 47.667 59.0438 47.8214C58.8921 47.9759 58.6863 48.0626 58.4718 48.0626H29.6534C29.4389 48.0626 29.2332 47.9759 29.0815 47.8214C28.9298 47.667 28.8446 47.4575 28.8446 47.2391C28.8446 46.2628 28.4637 45.3265 27.7857 44.6361C27.1077 43.9458 26.1881 43.5579 25.2292 43.5579C25.0147 43.5579 24.8089 43.4712 24.6573 43.3167C24.5056 43.1623 24.4204 42.9528 24.4204 42.7344V30.0109C24.4204 29.7925 24.5056 29.583 24.6573 29.4286C24.8089 29.2741 25.0147 29.1874 25.2292 29.1874C26.1881 29.1874 27.1077 28.7995 27.7857 28.1092C28.4637 27.4188 28.8446 26.4825 28.8446 25.5062C28.8446 25.2878 28.9298 25.0783 29.0815 24.9239C29.2332 24.7694 29.4389 24.6826 29.6534 24.6826H58.4718C58.6863 24.6826 58.8921 24.7694 59.0438 24.9239C59.1954 25.0783 59.2807 25.2878 59.2807 25.5062C59.2807 26.4825 59.6616 27.4188 60.3396 28.1092C61.0176 28.7995 61.9372 29.1874 62.8961 29.1874C63.1106 29.1874 63.3163 29.2741 63.468 29.4286C63.6197 29.583 63.7049 29.7925 63.7049 30.0109V42.7344Z" fill="black"/>
</svg>
