<svg width="81" height="81" viewBox="0 0 81 81" fill="none" xmlns="http://www.w3.org/2000/svg">
<rect x="0.5" y="0.5" width="80" height="80" rx="24" fill="#F2C94C"/>
<g clip-path="url(#clip0_292_2495)">
<path d="M66.3304 16.7043C66.2173 15.5739 65.3695 14.7261 64.2391 14.613C49.9391 13.4826 39.7086 20.4348 33.3217 29.1391C29.8173 28.0087 26.0304 28.4043 22.5826 30.3261C19.2478 32.1913 16.4782 35.3565 14.6695 39.2C14.2739 40.1043 14.4434 41.1217 15.1782 41.8C15.8565 42.4782 16.9304 42.5913 17.7782 42.1391C21.3956 40.2174 25.4652 40.613 27.8956 43.0435L37.8434 52.9913L37.8999 53.0478C40.3304 55.4782 40.726 59.5478 38.8043 63.1652C38.3521 64.013 38.5217 65.0869 39.1434 65.7652C39.5956 66.2174 40.1608 66.4435 40.7826 66.4435C41.1217 66.4435 41.4608 66.3869 41.7434 66.2174C45.5869 64.4087 48.7521 61.5826 50.6173 58.3043C52.5956 54.8565 52.9912 51.0695 51.8043 47.5087C54.3478 45.6435 56.6652 43.6087 58.5869 41.3478C64.5782 34.5087 67.1782 26.2 66.3304 16.7043ZM22.0739 36.4304C24.5043 34.0565 27.5565 32.5869 30.7782 33.1522C29.8739 34.7348 29.1391 36.3174 28.4608 37.9C26.5391 36.8261 24.3347 36.3174 22.0739 36.4304V36.4304ZM44.626 58.9261C44.6826 56.6087 44.1739 54.4043 43.1565 52.4826C44.7956 51.8043 46.3782 51.013 47.9043 50.1652C48.4695 53.3869 47.0565 56.4956 44.626 58.9261ZM40.1043 48.8087L32.1347 40.8391C36.1478 30.1565 46.0956 18.7391 61.9782 19.0217C62.4869 37.9565 46.8869 46.1522 40.1043 48.8087V48.8087ZM54.7434 26.2565C55.4217 26.9348 55.8173 27.8956 55.8173 28.8565C55.8173 29.8174 55.4217 30.7782 54.7434 31.4565C54.0652 32.1348 53.1043 32.5304 52.1434 32.5304C51.1825 32.5304 50.2217 32.1913 49.5434 31.4565C48.8652 30.7217 48.4695 29.8174 48.4695 28.8565C48.4695 27.8956 48.8652 26.9348 49.5434 26.2565C50.2217 25.5782 51.1825 25.1826 52.1434 25.1826C53.1043 25.1826 54.0652 25.5782 54.7434 26.2565ZM22.9217 49.7695C20.3217 52.3695 20.2086 57.5695 20.2086 58.5869C20.2086 59.8304 21.226 60.8478 22.4695 60.8478H22.526C23.713 60.8478 28.6869 60.6782 31.2304 58.1348C32.813 56.5522 33.1521 54.913 33.1521 53.8391C33.1521 52.313 32.5304 50.8435 31.3434 49.6565C28.5173 46.7739 24.9565 47.6782 22.9217 49.7695V49.7695ZM28.0652 54.913C27.4999 55.4782 26.2565 55.8739 24.9565 56.0435C25.1826 54.7435 25.5782 53.5 26.0869 52.9913C26.4826 52.5956 26.8217 52.3695 27.2173 52.3695C27.4999 52.3695 27.8391 52.5391 28.1782 52.8782C28.5173 53.2174 28.6869 53.5565 28.6869 53.8391C28.6304 54.1782 28.3478 54.6304 28.0652 54.913V54.913Z" fill="black"/>
</g>
<defs>
<clipPath id="clip0_292_2495">
<rect width="52" height="52" fill="white" transform="translate(14.5 14.5)"/>
</clipPath>
</defs>
</svg>
