<svg width="81" height="81" viewBox="0 0 81 81" fill="none" xmlns="http://www.w3.org/2000/svg">
<rect x="0.5" y="0.5" width="80" height="80" rx="24" fill="#9757D7"/>
<path d="M58.0312 22.5068H22.9688C21.0673 22.5089 19.2443 23.2652 17.8998 24.6098C16.5553 25.9543 15.799 27.7773 15.7969 29.6787V51.3218C15.7969 55.2759 19.0147 58.4937 22.9688 58.4937H58.0312C61.9853 58.4937 65.2031 55.2759 65.2031 51.3218V29.6787C65.2031 25.7246 61.9853 22.5068 58.0312 22.5068V22.5068ZM55.9116 27.2881L53.7122 29.0253L41.9822 38.285C41.1056 38.9703 39.8944 38.9703 39.0178 38.285L27.7022 29.344L25.0932 27.2881H55.9132H55.9116ZM58.0312 53.7125H22.9688C21.6507 53.7125 20.5781 52.6399 20.5781 51.3218V29.8301L36.0534 42.0462C37.3603 43.0821 38.9381 43.5922 40.5 43.5922C42.0619 43.5922 43.6397 43.0821 44.9466 42.0462L60.4219 29.8349V51.3218C60.4219 52.6399 59.3493 53.7125 58.0312 53.7125Z" fill="white"/>
</svg>
