<svg width="81" height="81" viewBox="0 0 81 81" fill="none" xmlns="http://www.w3.org/2000/svg">
<rect x="0.5" y="0.5" width="80" height="80" rx="24" fill="#2D9CDB"/>
<path fill-rule="evenodd" clip-rule="evenodd" d="M65.7433 28.961L63.9236 26.039C62.3842 23.5667 58.9726 22.7138 56.2971 24.1324C55.0236 24.8266 53.5039 25.0236 52.0732 24.6798C50.6425 24.3361 49.4183 23.4799 48.6706 22.3C48.1896 21.55 47.9311 20.6959 47.9214 19.8238C47.9647 18.4257 47.3947 17.0709 46.3411 16.0679C45.2875 15.065 43.8401 14.4994 42.3286 14.5H38.6625C37.1817 14.5 35.7618 15.046 34.7172 16.0173C33.6726 16.9885 33.0894 18.305 33.0965 19.6752C33.0526 22.5044 30.5614 24.7765 27.5037 24.7762C26.5613 24.7671 25.6382 24.528 24.8277 24.0829C22.1522 22.6642 18.7407 23.5172 17.2012 25.9895L15.2478 28.961C13.7102 31.4302 14.6194 34.5851 17.2815 36.0181C19.0119 36.9426 20.0779 38.6511 20.0779 40.5C20.0779 42.3489 19.0119 44.0574 17.2815 44.9819C14.6228 46.4052 13.7126 49.5525 15.2478 52.0143L17.0942 54.961C17.8155 56.1653 19.0257 57.054 20.457 57.4304C21.8883 57.8068 23.4227 57.6399 24.7207 56.9667C25.9967 56.2777 27.5172 56.0889 28.9443 56.4423C30.3714 56.7957 31.5869 57.662 32.3205 58.8486C32.8015 59.5985 33.0599 60.4527 33.0697 61.3248C33.0697 64.183 35.5737 66.5 38.6625 66.5H42.3286C45.407 66.5 47.9066 64.1981 47.9214 61.3495C47.9142 59.9749 48.5011 58.6548 49.5515 57.6828C50.6019 56.7108 52.0286 56.1677 53.5141 56.1743C54.4543 56.1976 55.3736 56.4358 56.1901 56.8676C58.8586 58.2904 62.268 57.4491 63.8166 54.9857L65.7433 52.0143C66.4891 50.8298 66.6938 49.419 66.312 48.0945C65.9303 46.7699 64.9937 45.6408 63.7096 44.9571C62.4254 44.2735 61.4888 43.1444 61.1071 41.8198C60.7254 40.4953 60.9301 39.0845 61.6758 37.9C62.1608 37.1165 62.8628 36.4669 63.7096 36.0181C66.3557 34.5859 67.2628 31.4494 65.7433 28.9857V28.961Z" stroke="white" stroke-width="4" stroke-linecap="round" stroke-linejoin="round"/>
<path d="M40.5086 47.6312C44.7647 47.6312 48.2149 44.4385 48.2149 40.5001C48.2149 36.5618 44.7647 33.3691 40.5086 33.3691C36.2525 33.3691 32.8022 36.5618 32.8022 40.5001C32.8022 44.4385 36.2525 47.6312 40.5086 47.6312Z" stroke="white" stroke-width="4" stroke-linecap="round" stroke-linejoin="round"/>
</svg>
